<?xml version="1.0" encoding="UTF-8" standalone="no"?>
<svg
   xmlns:dc="http://purl.org/dc/elements/1.1/"
   xmlns:cc="http://creativecommons.org/ns#"
   xmlns:rdf="http://www.w3.org/1999/02/22-rdf-syntax-ns#"
   xmlns:svg="http://www.w3.org/2000/svg"
   xmlns="http://www.w3.org/2000/svg"
   xmlns:xlink="http://www.w3.org/1999/xlink"
   xmlns:sodipodi="http://sodipodi.sourceforge.net/DTD/sodipodi-0.dtd"
   xmlns:inkscape="http://www.inkscape.org/namespaces/inkscape"
   height="815pt"
   version="1.1"
   viewBox="0 0 981 815"
   width="981pt"
   id="svg586"
   sodipodi:docname="SMFUDS-FF-9.svg"
   inkscape:version="1.0.2 (e86c870879, 2021-01-15)">
  <sodipodi:namedview
     id="namedview588"
     pagecolor="#ffffff"
     bordercolor="#666666"
     borderopacity="1.0"
     inkscape:pageshadow="2"
     inkscape:pageopacity="0.0"
     inkscape:pagecheckerboard="0"
     inkscape:document-units="pt"
     showgrid="false"
     inkscape:zoom="0.5309439"
     inkscape:cx="635.78057"
     inkscape:cy="675.19907"
     inkscape:window-width="1401"
     inkscape:window-height="1022"
     inkscape:window-x="4"
     inkscape:window-y="1104"
     inkscape:window-maximized="1"
     inkscape:current-layer="svg586"
     inkscape:document-rotation="0" />
  <metadata
     id="metadata2">
    <rdf:RDF>
      <cc:Work>
        <dc:type
           rdf:resource="http://purl.org/dc/dcmitype/StillImage" />
        <dc:date>2021-08-01T10:08:51.684070</dc:date>
        <dc:format>image/svg+xml</dc:format>
        <dc:creator>
          <cc:Agent>
            <dc:title>Matplotlib v3.3.2, https://matplotlib.org/</dc:title>
          </cc:Agent>
        </dc:creator>
        <dc:title></dc:title>
      </cc:Work>
    </rdf:RDF>
  </metadata>
  <defs
     id="defs6">
    <style
       type="text/css"
       id="style4">*{stroke-linecap:butt;stroke-linejoin:round;}</style>
  </defs>
  <g
     id="figure_1">
    <g
       id="patch_1">
      <path
         d="M 0,864 H 1008 V 0 H 0 Z"
         style="fill:none"
         id="path8" />
    </g>
    <g
       id="axes_1"
       transform="translate(-15.538365,-39.552201)">
      <g
         id="patch_2">
        <path
           d="M 94.191875,789.265 H 994.53758 V 42.26625 H 94.191875 Z"
           style="fill:#ffffff"
           id="path11" />
      </g>
      <g
         id="matplotlib.axis_1">
        <g
           id="xtick_1">
          <g
             id="line2d_1">
            <defs
               id="defs15">
              <path
                 d="M 0,0 V 3.5"
                 id="m0dd76f0bb0"
                 style="stroke:#000000;stroke-width:0.8" />
            </defs>
            <g
               id="g19">
              <use
                 style="stroke:#000000;stroke-width:0.8"
                 x="135.11668"
                 xlink:href="#m0dd76f0bb0"
                 y="789.26501"
                 id="use17"
                 width="100%"
                 height="100%" />
            </g>
          </g>
          <g
             id="text_1">
            <!-- 0 -->
            <g
               transform="matrix(0.28,0,0,-0.28,126.65981,816.06187)"
               id="g27">
              <defs
                 id="defs23">
                <path
                   d="M 12.5,12.5 V 57.09375 L 19,63.5 H 41.59375 L 43,62.203125 Z m 35.40625,45 V 12.90625 L 41.40625,6.5 H 18.796875 L 17.40625,7.796875 Z M 44.203125,70 H 16.296875 L 6,59.796875 V 10.203125 L 16.203125,0 H 44.09375 l 10.3125,10.203125 v 49.59375 z"
                   id="Bender-48" />
              </defs>
              <use
                 xlink:href="#Bender-48"
                 id="use25"
                 x="0"
                 y="0"
                 width="100%"
                 height="100%" />
            </g>
          </g>
        </g>
        <g
           id="xtick_2">
          <g
             id="line2d_2">
            <g
               id="g33">
              <use
                 style="stroke:#000000;stroke-width:0.8"
                 x="254.89659"
                 xlink:href="#m0dd76f0bb0"
                 y="789.26501"
                 id="use31"
                 width="100%"
                 height="100%" />
            </g>
          </g>
          <g
             id="text_2">
            <!-- 20 -->
            <g
               transform="matrix(0.28,0,0,-0.28,238.7966,816.06187)"
               id="g43">
              <defs
                 id="defs37">
                <path
                   d="m 12.796875,63.5 h 25 L 44.09375,57.09375 V 44.5 L 36.796875,37.09375 2.09375,14.40625 V 0 h 48.5 v 6.5 h -42 v 4.40625 L 41.296875,32.296875 50.59375,41.59375 V 59.703125 L 40.40625,70 H 12.296875 L 2,66.796875 4,60.703125 Z"
                   id="Bender-50" />
              </defs>
              <use
                 xlink:href="#Bender-50"
                 id="use39"
                 x="0"
                 y="0"
                 width="100%"
                 height="100%" />
              <use
                 x="54.599991"
                 xlink:href="#Bender-48"
                 id="use41"
                 y="0"
                 width="100%"
                 height="100%" />
            </g>
          </g>
        </g>
        <g
           id="xtick_3">
          <g
             id="line2d_3">
            <g
               id="g49">
              <use
                 style="stroke:#000000;stroke-width:0.8"
                 x="374.67651"
                 xlink:href="#m0dd76f0bb0"
                 y="789.26501"
                 id="use47"
                 width="100%"
                 height="100%" />
            </g>
          </g>
          <g
             id="text_3">
            <!-- 40 -->
            <g
               transform="matrix(0.28,0,0,-0.28,358.43651,816.06187)"
               id="g59">
              <defs
                 id="defs53">
                <path
                   d="m 47.296875,23.59375 v 46.609375 h -6.5 L 1,25.90625 v -8.8125 H 40.796875 V 0 h 6.5 v 17.09375 h 7.296875 v 6.5 z m -6.5,0 H 7.90625 l 32.890625,36.609375 z"
                   id="Bender-52" />
              </defs>
              <use
                 xlink:href="#Bender-52"
                 id="use55"
                 x="0"
                 y="0"
                 width="100%"
                 height="100%" />
              <use
                 x="55.599991"
                 xlink:href="#Bender-48"
                 id="use57"
                 y="0"
                 width="100%"
                 height="100%" />
            </g>
          </g>
        </g>
        <g
           id="xtick_4">
          <g
             id="line2d_4">
            <g
               id="g65">
              <use
                 style="stroke:#000000;stroke-width:0.8"
                 x="494.45642"
                 xlink:href="#m0dd76f0bb0"
                 y="789.26501"
                 id="use63"
                 width="100%"
                 height="100%" />
            </g>
          </g>
          <g
             id="text_4">
            <!-- 60 -->
            <g
               transform="matrix(0.28,0,0,-0.28,477.80955,816.06187)"
               id="g75">
              <defs
                 id="defs69">
                <path
                   d="M 6,10.296875 16.296875,0 h 27.90625 L 54.5,10.203125 V 32 L 44.203125,42.5 H 15.796875 L 12.5,41.40625 v 15.6875 L 18.796875,63.5 H 43.09375 L 52,60.59375 54.203125,66.703125 44.40625,70 H 16.203125 L 6,59.703125 Z M 41.5,36 48,29.296875 V 13 L 41.5,6.5 H 19 L 12.5,13 V 34.90625 L 15.796875,36 Z"
                   id="Bender-54" />
              </defs>
              <use
                 xlink:href="#Bender-54"
                 id="use71"
                 x="0"
                 y="0"
                 width="100%"
                 height="100%" />
              <use
                 x="58.499985"
                 xlink:href="#Bender-48"
                 id="use73"
                 y="0"
                 width="100%"
                 height="100%" />
            </g>
          </g>
        </g>
        <g
           id="xtick_5">
          <g
             id="line2d_5">
            <g
               id="g81">
              <use
                 style="stroke:#000000;stroke-width:0.8"
                 x="614.23633"
                 xlink:href="#m0dd76f0bb0"
                 y="789.26501"
                 id="use79"
                 width="100%"
                 height="100%" />
            </g>
          </g>
          <g
             id="text_5">
            <!-- 80 -->
            <g
               transform="matrix(0.28,0,0,-0.28,597.33791,816.06187)"
               id="g91">
              <defs
                 id="defs85">
                <path
                   d="M 47.796875,26.796875 V 13 L 41.203125,6.5 H 19 l -6.5,6.40625 v 13.796875 l 6.5,6.5 H 41.40625 Z M 41,63.5 47.296875,56.90625 V 45.703125 l -6.09375,-6 H 19.09375 l -6.09375,6 v 11.5 L 19.296875,63.5 Z M 44,0 54.296875,10.203125 V 29.5 l -7,7 6.5,6.40625 V 59.796875 L 44,70 H 16.703125 L 6.5,59.796875 V 42.90625 L 13,36.5 6,29.5 V 10.203125 L 16.296875,0 Z"
                   id="Bender-56" />
              </defs>
              <use
                 xlink:href="#Bender-56"
                 id="use87"
                 x="0"
                 y="0"
                 width="100%"
                 height="100%" />
              <use
                 x="60.299988"
                 xlink:href="#Bender-48"
                 id="use89"
                 y="0"
                 width="100%"
                 height="100%" />
            </g>
          </g>
        </g>
        <g
           id="xtick_6">
          <g
             id="line2d_6">
            <g
               id="g97">
              <use
                 style="stroke:#000000;stroke-width:0.8"
                 x="734.01624"
                 xlink:href="#m0dd76f0bb0"
                 y="789.26501"
                 id="use95"
                 width="100%"
                 height="100%" />
            </g>
          </g>
          <g
             id="text_6">
            <!-- 100 -->
            <g
               transform="matrix(0.28,0,0,-0.28,712.06251,816.06187)"
               id="g109">
              <defs
                 id="defs101">
                <path
                   d="M 34,0 V 6.5 H 22.40625 v 63.59375 h -6.5 L 2,56.203125 6.59375,51.59375 l 9.3125,9.3125 V 6.5 H 4.296875 V 0 Z"
                   id="Bender-49" />
              </defs>
              <use
                 xlink:href="#Bender-49"
                 id="use103"
                 x="0"
                 y="0"
                 width="100%"
                 height="100%" />
              <use
                 x="35.999985"
                 xlink:href="#Bender-48"
                 id="use105"
                 y="0"
                 width="100%"
                 height="100%" />
              <use
                 x="96.399979"
                 xlink:href="#Bender-48"
                 id="use107"
                 y="0"
                 width="100%"
                 height="100%" />
            </g>
          </g>
        </g>
        <g
           id="xtick_7">
          <g
             id="line2d_7">
            <g
               id="g115">
              <use
                 style="stroke:#000000;stroke-width:0.8"
                 x="853.7962"
                 xlink:href="#m0dd76f0bb0"
                 y="789.26501"
                 id="use113"
                 width="100%"
                 height="100%" />
            </g>
          </g>
          <g
             id="text_7">
            <!-- 120 -->
            <g
               transform="matrix(0.28,0,0,-0.28,832.65618,816.06187)"
               id="g124">
              <use
                 xlink:href="#Bender-49"
                 id="use118"
                 x="0"
                 y="0"
                 width="100%"
                 height="100%" />
              <use
                 x="35.999985"
                 xlink:href="#Bender-50"
                 id="use120"
                 y="0"
                 width="100%"
                 height="100%" />
              <use
                 x="90.599976"
                 xlink:href="#Bender-48"
                 id="use122"
                 y="0"
                 width="100%"
                 height="100%" />
            </g>
          </g>
        </g>
        <g
           id="xtick_8">
          <g
             id="line2d_8">
            <g
               id="g130">
              <use
                 style="stroke:#000000;stroke-width:0.8"
                 x="973.57611"
                 xlink:href="#m0dd76f0bb0"
                 y="789.26501"
                 id="use128"
                 width="100%"
                 height="100%" />
            </g>
          </g>
          <g
             id="text_8">
            <!-- 140 -->
            <g
               transform="matrix(0.28,0,0,-0.28,952.7161,816.06187)"
               id="g139">
              <use
                 xlink:href="#Bender-49"
                 id="use133"
                 x="0"
                 y="0"
                 width="100%"
                 height="100%" />
              <use
                 x="32.999985"
                 xlink:href="#Bender-52"
                 id="use135"
                 y="0"
                 width="100%"
                 height="100%" />
              <use
                 x="88.599976"
                 xlink:href="#Bender-48"
                 id="use137"
                 y="0"
                 width="100%"
                 height="100%" />
            </g>
          </g>
        </g>
      </g>
      <g
         id="matplotlib.axis_2">
        <g
           id="ytick_1">
          <g
             id="line2d_9">
            <defs
               id="defs193">
              <path
                 d="M 0,0 H -3.5"
                 id="m6f46cd1c8b"
                 style="stroke:#000000;stroke-width:0.8" />
            </defs>
            <g
               id="g197">
              <use
                 style="stroke:#000000;stroke-width:0.8"
                 x="94.191872"
                 xlink:href="#m6f46cd1c8b"
                 y="731.80353"
                 id="use195"
                 width="100%"
                 height="100%" />
            </g>
          </g>
          <g
             id="text_10">
            <!-- 0 -->
            <g
               transform="matrix(0.28,0,0,-0.28,70.278125,741.70199)"
               id="g202">
              <use
                 xlink:href="#Bender-48"
                 id="use200"
                 x="0"
                 y="0"
                 width="100%"
                 height="100%" />
            </g>
          </g>
        </g>
        <g
           id="ytick_2">
          <g
             id="line2d_10">
            <g
               id="g208">
              <use
                 style="stroke:#000000;stroke-width:0.8"
                 x="94.191872"
                 xlink:href="#m6f46cd1c8b"
                 y="616.88068"
                 id="use206"
                 width="100%"
                 height="100%" />
            </g>
          </g>
          <g
             id="text_11">
            <!-- 20 -->
            <g
               transform="matrix(0.28,0,0,-0.28,54.991875,626.77911)"
               id="g215">
              <use
                 xlink:href="#Bender-50"
                 id="use211"
                 x="0"
                 y="0"
                 width="100%"
                 height="100%" />
              <use
                 x="54.599991"
                 xlink:href="#Bender-48"
                 id="use213"
                 y="0"
                 width="100%"
                 height="100%" />
            </g>
          </g>
        </g>
        <g
           id="ytick_3">
          <g
             id="line2d_11">
            <g
               id="g221">
              <use
                 style="stroke:#000000;stroke-width:0.8"
                 x="94.191872"
                 xlink:href="#m6f46cd1c8b"
                 y="501.95779"
                 id="use219"
                 width="100%"
                 height="100%" />
            </g>
          </g>
          <g
             id="text_12">
            <!-- 40 -->
            <g
               transform="matrix(0.28,0,0,-0.28,54.711875,511.85623)"
               id="g228">
              <use
                 xlink:href="#Bender-52"
                 id="use224"
                 x="0"
                 y="0"
                 width="100%"
                 height="100%" />
              <use
                 x="55.599991"
                 xlink:href="#Bender-48"
                 id="use226"
                 y="0"
                 width="100%"
                 height="100%" />
            </g>
          </g>
        </g>
        <g
           id="ytick_4">
          <g
             id="line2d_12">
            <g
               id="g234">
              <use
                 style="stroke:#000000;stroke-width:0.8"
                 x="94.191872"
                 xlink:href="#m6f46cd1c8b"
                 y="387.03491"
                 id="use232"
                 width="100%"
                 height="100%" />
            </g>
          </g>
          <g
             id="text_13">
            <!-- 60 -->
            <g
               transform="matrix(0.28,0,0,-0.28,53.898125,396.93334)"
               id="g241">
              <use
                 xlink:href="#Bender-54"
                 id="use237"
                 x="0"
                 y="0"
                 width="100%"
                 height="100%" />
              <use
                 x="58.499985"
                 xlink:href="#Bender-48"
                 id="use239"
                 y="0"
                 width="100%"
                 height="100%" />
            </g>
          </g>
        </g>
        <g
           id="ytick_5">
          <g
             id="line2d_13">
            <g
               id="g247">
              <use
                 style="stroke:#000000;stroke-width:0.8"
                 x="94.191872"
                 xlink:href="#m6f46cd1c8b"
                 y="272.11203"
                 id="use245"
                 width="100%"
                 height="100%" />
            </g>
          </g>
          <g
             id="text_14">
            <!-- 80 -->
            <g
               transform="matrix(0.28,0,0,-0.28,53.395,282.01046)"
               id="g254">
              <use
                 xlink:href="#Bender-56"
                 id="use250"
                 x="0"
                 y="0"
                 width="100%"
                 height="100%" />
              <use
                 x="60.299988"
                 xlink:href="#Bender-48"
                 id="use252"
                 y="0"
                 width="100%"
                 height="100%" />
            </g>
          </g>
        </g>
        <g
           id="ytick_6">
          <g
             id="line2d_14">
            <g
               id="g260">
              <use
                 style="stroke:#000000;stroke-width:0.8"
                 x="94.191872"
                 xlink:href="#m6f46cd1c8b"
                 y="157.18913"
                 id="use258"
                 width="100%"
                 height="100%" />
            </g>
          </g>
          <g
             id="text_15">
            <!-- 100 -->
            <g
               transform="matrix(0.28,0,0,-0.28,43.284375,167.08757)"
               id="g269">
              <use
                 xlink:href="#Bender-49"
                 id="use263"
                 x="0"
                 y="0"
                 width="100%"
                 height="100%" />
              <use
                 x="35.999985"
                 xlink:href="#Bender-48"
                 id="use265"
                 y="0"
                 width="100%"
                 height="100%" />
              <use
                 x="96.399979"
                 xlink:href="#Bender-48"
                 id="use267"
                 y="0"
                 width="100%"
                 height="100%" />
            </g>
          </g>
        </g>
      </g>
      <g
         id="line2d_16">
        <path
           clip-path="url(#pab63ee0ae2)"
           d="m 135.11668,200.15092 h 0.19966 l 0.19965,-5.37022 h 0.69881 l 0.19965,-5.37021 h 0.79863 l 0.19966,-5.37022 h 1.09812 l 0.19966,-5.37028 h 1.49743 l 0.19965,-5.37021 h 2.39589 l 0.19966,-5.37022 h 4.19281 l 0.19966,-5.37021 h 8.48544 l 0.19966,-5.37022 h 4.99144 l 0.19966,5.37022 h 5.19109 l 0.19966,5.37021 h 9.28408 l 0.19965,5.37022 h 2.59555 l 0.19966,5.37021 h 1.59726 l 0.19966,5.37028 h 1.3976 l 0.19966,5.37022 h 2.39589 l 0.19966,5.37021 h 3.09469 l 0.19966,5.37022 h 1.49743 l 0.19966,-5.37022 h 4.09297 l 0.19966,5.37022 h 5.29093 l 0.19965,5.37021 h 4.69196 l 0.19965,5.37021 h 7.58699 l 0.19966,5.37029 h 0.79863 l 0.19966,-5.37029 h 2.19623 l 0.19966,5.37029 h 8.28578 l 0.19966,5.37021 h 8.08613 l 0.19966,5.37022 h 5.8899 l 0.19966,5.37021 h 7.2875 l 0.19965,5.37028 h 9.08442 l 0.19966,5.37022 h 9.48373 l 0.19966,5.37021 h 1.29778 l 0.19965,-5.37021 h 1.99658 l 0.19965,5.37021 h 6.98802 l 0.19966,5.37021 h 0.49914 l 0.19966,-5.37021 h 1.3976 l 0.19966,5.37021 h 7.58698 l 0.19966,5.37029 h 12.27894 l 0.19966,5.37021 h 5.59041 l 0.19966,5.37022 h 10.18253 l 0.19966,5.37021 h 0.79863 l 0.19966,5.37028 h 1.89674 l 0.19966,5.37022 h 1.39761 l 0.19965,5.37021 h 3.19452 l 0.19966,5.37022 h 8.28579 l 0.19966,5.37021 h 5.19109 l 0.19966,5.37021 h 0.79863 l 0.19966,-5.37021 h 2.49572 l 0.19965,5.37021 h 1.39761 l 0.19966,5.37022 h 12.37876 l 0.19966,5.37028 h 10.58185 l 0.19966,5.37021 h 6.78835 l 0.19966,5.37022 h 3.39418 l 0.19966,5.37021 h 9.48373 l 0.19966,5.37029 h 7.08784 l 0.19966,5.37021 h 0.29948 l 0.19966,-5.37021 h 0.6988 l 0.19966,5.37021 h 11.67997 l 0.19965,5.37021 h 9.78322 l 0.19966,5.37022 h 8.28579 l 0.19966,5.37028 h 0.89846 l 0.19965,-5.37028 h 2.79521 l 0.19966,5.37028 h 8.08613 l 0.19965,5.37021 h 0.0998 l 0.19966,-5.37021 h 0.39932 l 0.19965,5.37021 h 4.99144 l 0.19966,5.37022 h 0.6988 l 0.19966,-5.37022 h 4.59212 l 0.19966,5.37022 h 2.59555 l 0.19966,5.37021 h 1.19794 l 0.19966,5.37029 h 1.59726 l 0.19966,5.37021 h 1.69709 l 0.19965,5.37021 h 2.99487 l 0.19965,5.37022 h 8.48545 l 0.19966,5.37021 h 8.58527 l 0.19966,5.37022 h 3.09469 l 0.19966,5.37028 h 0.49914 l 0.19966,-5.37028 h 2.49572 l 0.19966,5.37028 h 8.38561 l 0.19966,5.37021 h 0.6988 l 0.19966,-5.37021 h 2.79521 l 0.19965,5.37021 h 6.48887 l 0.19966,5.37022 h 0.29949 l 0.19965,-5.37022 h 0.99829 l 0.19966,5.37022 h 4.4923 l 0.19965,5.37021 h 6.88819 l 0.19965,5.37025 h 8.68511 l 0.19966,5.37025 h 1.09811 l 0.19966,-5.37025 h 0.6988 l 0.19966,5.37025 h 9.3839 l 0.19966,5.37021 h 6.68853 l 0.19966,5.37022 h 13.87619 l 0.19966,5.37025 h 7.58699 l 0.19966,5.37021 h 9.48373 l 0.19966,5.37023 h 9.78322 l 0.19965,5.37023 h 2.59555 l 0.19966,5.37023 h 1.59726 l 0.19966,5.37022 h 1.3976 l 0.19966,5.37025 h 2.29606 l 0.19966,5.37021 h 2.19623 l 0.19966,5.37023 h 2.7952 l 0.19966,-5.37023 h 3.7935 l 0.19965,5.37023 h 2.39589 l 0.19966,5.37022 h 0.59897 l 0.19966,-5.37022 h 1.89675 l 0.19966,5.37022 h 4.79178 l 0.19965,5.37024 h 7.08785 l 0.19965,5.37022 h 1.49743 l 0.19966,-5.37022 h 1.89675 l 0.19966,5.37022 h 8.28578 l 0.19966,5.37023 h 8.08613 l 0.19966,5.37023 h 5.69024 l 0.19966,5.37023 h 7.2875 l 0.19966,5.37022 h 9.18424 l 0.19966,5.37024 h 9.48373 l 0.19966,5.37022 h 10.68168 l 0.19966,5.37023 h 9.78322 l 0.19965,5.37025 h 12.27894 l 0.19966,5.37021 h 5.69024 l 0.19966,5.37023 h 10.28236 l 0.19966,5.37024 h 0.89846 l 0.19966,5.37021 h 1.79691 l 0.19966,5.37025 h 1.39761 l 0.19965,5.37021 h 2.99486 l 0.19966,5.37023 h 8.48545 l 0.19966,5.37023 h 5.19109 l 0.19966,5.37023 h 1.09812 l 0.19965,-5.37023 h 2.09641 l 0.19965,5.37023 H 751.16 l 0.19966,5.37023 h 11.28065 l 0.19966,5.37022 h 8.28578 l 0.19966,5.37023 h 0.49914 l 0.19966,-5.37023 h 2.59555 l 0.19966,5.37023 h 4.39246 l 0.19966,5.37023 h 0.6988 l 0.19966,-5.37023 h 1.3976 l 0.19966,5.37023 h 3.29435 l 0.19966,5.37024 h 8.48544 l 0.19966,5.37023 h 7.88647 l 0.19966,5.37022 h 13.37706 l 0.19965,5.37022 h 9.6834 l 0.19965,5.37023 h 8.08613 l 0.19966,5.37023 h 12.37877 l 0.19966,5.37024 h 5.29092 l 0.19966,5.37022 h 1.69709 l 0.19965,-5.37022 h 4.19281 l 0.19966,5.37022 h 2.69538 l 0.19966,5.37023 h 0.89845 l 0.19966,5.37023 h 1.89675 l 0.19966,5.37023 h 1.59726 l 0.19965,5.37023 h 2.99487 l 0.19966,5.37023 h 8.48544 l 0.19966,5.37023 h 8.6851 l 0.19966,5.37022 h 2.59555 l 0.19965,5.37023 h 1.29778 l 0.19966,-5.37023 h 2.0964 l 0.19966,5.37023 h 8.08613 l 0.19966,5.37023 h 10.38219 l 0.19966,5.37023 h 6.48887 l 0.19965,5.37023 h 2.99487 l 0.19965,-5.52514 h 0.49915 l 0.19965,-5.52514 h 0.39932 l 0.19966,-5.52514 h 0.49914 l 0.19966,-5.52514 h 0.39931 l 0.19966,-5.52514 h 0.49915 l 0.19965,-5.52513 h 0.49915 l 0.19965,-5.52515 h 0.39932 l 0.19966,-5.52513 h 0.49914 l 0.19966,-5.52514 h 0.39931 l 0.19966,-5.52514 h 0.49914 l 0.19966,-5.52514 h 0.39932 l 0.19966,-5.52514 h 0.49914 l 0.19966,-5.52513 h 0.39931 l 0.19966,-5.52515 h 0.49914 l 0.19966,-5.52513 h 0.39932 l 0.19965,-5.52514 h 0.49915 l 0.19965,-5.52515 h 0.49915 l 0.19966,-5.52514 h 0.39931 l 0.19966,-5.52513 h 0.49914 l 0.19966,-5.52515 h 0.39931 l 0.19966,-5.52514 h 0.49915 l 0.19965,-5.52513 h 0.39932 l 0.19966,-5.52514 h 0.49914 l 0.19966,-5.52513 H 937.74 l 0.19966,-5.52514 h 0.49914 l 0.19966,-5.52514 h 0.39932 l 0.19965,-5.52514 h 0.49915 l 0.19966,-5.52514 h 0.49914 l 0.19966,-5.52513 h 0.39931 l 0.19966,-5.52514 h 0.49914 l 0.19966,-5.52514 h 0.39932 l 0.19966,-5.52513 h 0.49914 l 0.19966,-5.52516 h 0.39931 l 0.19966,-5.52513 h 0.49914 l 0.19966,-5.52514 h 0.39932 l 0.19965,-5.52514 h 0.49915 l 0.19965,-5.52514 h 0.39932 l 0.19966,-5.52513 h 0.49914 l 0.19966,-5.52516 h 0.49914 l 0.19966,-5.52512 h 0.39932 l 0.19965,-5.52513 h 0.49915 l 0.19965,-5.52514 h 0.39932 l 0.19966,-5.52514 h 0.49914 l 0.19966,-5.52515 h 0.39931 l 0.19966,-5.52512 h 0.49914 l 0.19966,-5.52516 h 0.39932 l 0.19965,-5.52513 h 0.49915 l 0.19966,-5.52514 h 0.39931 l 0.19966,-5.52514 v 0"
           style="fill:none;stroke:#1f77b4;stroke-width:1.5;stroke-linecap:square"
           id="path311" />
      </g>
      <g
         id="line2d_17">
        <path
           clip-path="url(#pab63ee0ae2)"
           d="m 135.11668,197.4803 0.19966,-2.42738 0.59897,-5.70994 0.6988,-4.00392 1.49743,-6.39596 0.99829,-3.51751 0.89846,-2.36512 1.09812,-2.23907 1.3976,-2.12249 2.0964,-2.37425 0.99829,-0.91091 0.39932,-0.39346 0.89845,-0.8845 0.29949,-0.32455 0.39932,-0.37822 0.39931,-0.41969 0.6988,-0.78651 0.79863,-1.17011 0.19966,-0.45199 0.49914,-0.80031 0.19966,-0.47957 0.99829,-1.41328 0.6988,-0.46209 0.39932,-0.13008 1.29777,-0.0328 1.3976,0.17611 6.18939,0.0741 0.19965,-0.0879 0.0998,0.10693 0.19966,0.36585 0.0998,0.29732 0.19966,2.88722 0.19965,-1.45298 0.19966,1.23073 0.19966,-0.82497 0.0998,0.19365 0.0998,-0.0628 0.0998,-0.57526 0.0998,0.16601 0.19966,1.13613 0.0998,-0.37415 0.0998,0.58968 0.19966,1.81034 0.29948,-1.63652 0.0998,-0.12988 0.29949,-1.12948 0.0998,0.32075 0.39931,2.62157 0.19966,0.0211 0.39931,-0.88138 0.0998,-0.003 0.19966,0.34236 0.19966,-0.37441 0.29948,0.96549 0.19966,-1.01498 0.0998,0.18292 0.19966,1.06938 0.0998,-0.11635 0.19966,-0.56275 0.39931,1.86551 0.0998,0.0315 0.19966,-0.17652 0.0998,0.073 0.0998,-0.0756 0.19966,-0.64012 0.0998,0.0147 0.19966,0.72987 0.0998,-0.23509 0.19965,-0.96396 0.29949,1.96528 0.0998,-0.23941 0.39931,-0.95662 0.0998,0.0669 0.49915,2.23137 0.0998,0.0686 0.39931,-2.13848 0.19966,-2.84783 0.39931,1.24351 0.19966,1.05842 0.19966,-0.19002 0.19966,0.29708 0.19965,-0.0782 0.29949,0.0665 1.29777,0.0554 1.09812,0.025 0.49914,0.0222 0.19966,1.33129 0.59897,7.41352 0.0998,-0.10919 0.0998,-0.59982 0.29949,-3.15724 0.29948,1.20953 0.0998,0.049 0.0998,1.1799 0.0998,-0.0682 0.29949,-4.251 0.0998,0.5233 0.0998,-0.80918 0.29949,3.67016 0.19966,3.64889 0.29949,7.23183 0.19965,1.23836 0.0998,-1.95364 0.0998,1.45473 0.0998,-1.25508 0.0998,0.34219 0.0998,-0.66989 0.0998,0.56481 0.19965,-1.56319 0.0998,0.37222 0.19966,-0.87956 0.29949,1.4441 0.49914,1.75985 0.49914,3.0783 0.0998,0.12484 0.29949,2.17238 0.0998,0.94084 0.19965,-1.25939 0.29949,-0.60184 0.79863,2.91431 0.29949,-0.029 0.29948,0.89645 0.29949,0.52737 0.0998,-0.0699 0.0998,0.0666 0.19966,-0.26379 0.39931,1.41091 0.19966,1.0703 0.0998,0.15824 0.0998,-0.12967 0.29948,-0.66777 0.0998,-0.13381 0.29949,0.99156 0.19965,0.24845 0.29949,1.61367 0.0998,1.30053 0.0998,-0.28006 0.19966,1.86552 0.0998,0.67725 0.0998,1.85705 0.0998,-0.11117 0.29949,-0.91838 0.49914,-3.79479 0.0998,0.18025 0.19966,1.09339 0.19966,-0.66722 0.19965,1.10202 0.19966,-0.18008 0.19966,0.64975 0.19966,-0.70205 0.29948,-1.58152 0.39932,-2.2228 0.0998,-0.32359 0.39931,-2.27175 0.0998,-0.0532 0.19966,0.63756 0.19966,1.12312 0.0998,0.0315 0.0998,-0.4074 0.29949,-2.49807 0.0998,0.11614 0.19966,1.33375 0.0998,0.0867 0.0998,-0.22242 0.0998,0.0601 0.6988,1.73982 0.6988,0.55782 0.29949,0.19632 0.0998,0.30825 0.19966,2.32894 0.59897,7.56127 0.0998,-0.0642 0.0998,0.0719 0.29948,1.54812 0.29949,-1.15332 0.0998,0.13412 0.0998,0.441 0.49914,-2.00912 0.19966,1.6709 0.0998,-0.0832 0.29948,-0.59526 0.19966,0.12018 0.19966,0.54262 0.0998,-0.11525 0.39931,-2.3832 0.49915,-5.69106 0.0998,0.0981 0.0998,0.16559 0.19966,1.37482 0.29949,1.92685 0.39931,0.76672 0.0998,0.11463 0.19966,1.66063 0.49914,8.3958 0.0998,1.64121 0.19966,-0.70116 0.0998,0.11405 0.0998,-0.13371 0.49914,-5.2163 0.0998,-0.50069 0.39931,-4.95538 0.0998,0.14172 0.39932,2.85023 0.29949,0.57132 0.39931,0.34475 0.99829,0.51594 0.19966,1.93696 0.6988,9.4974 0.0998,-0.57495 0.19965,1.13497 0.59898,-3.83658 0.39931,-1.57737 0.19966,0.35554 0.29948,-0.44696 0.0998,-0.0298 0.49915,0.78305 0.0998,-0.14299 0.19965,0.40387 0.0998,0.46076 0.29949,-0.54854 0.0998,0.17474 0.29948,-0.21676 0.19966,-1.49048 0.39932,-4.28563 0.19965,-0.82367 0.0998,0.0383 0.0998,0.36845 0.39932,2.86499 0.29948,0.69236 0.19966,0.24156 0.19966,1.00578 0.39931,1.64641 0.19966,0.5816 0.49914,3.2941 0.19966,0.31647 0.19966,0.45052 0.0998,0.053 0.0998,-0.17704 0.39931,-1.43071 0.19966,-0.21197 0.19966,0.73534 0.0998,0.0734 0.29948,-1.3681 0.19966,0.45097 0.0998,-0.15707 0.0998,-0.58639 0.29948,-3.71791 0.49915,2.23435 0.29948,0.58039 0.39932,0.54718 0.79863,0.50001 0.29949,3.72417 0.19965,2.04488 0.0998,0.13217 0.0998,-0.19707 0.29949,-1.77993 0.19965,-0.3951 0.39932,-1.11192 0.19966,0.61407 0.0998,0.0174 0.19965,-0.319 0.0998,0.0486 0.19966,0.66349 0.49914,2.78224 0.0998,-0.25215 0.19966,-0.29191 0.19966,0.35144 0.0998,-0.0992 0.19965,-0.42117 0.0998,0.0634 0.39932,3.46107 0.0998,-0.10289 0.19965,-3.66259 0.29949,-4.81486 0.6988,3.10878 0.39932,0.461 0.6988,0.4074 1.09811,0.50005 0.19966,1.38224 0.29949,3.64951 0.19966,0.52824 0.39931,2.68702 0.0998,0.0753 0.0998,0.29934 0.0998,-0.0454 0.49914,-2.36631 0.29949,-0.32222 0.19966,-1.15521 0.39931,-4.31488 0.0998,-0.27633 0.49914,2.11044 0.19966,0.22399 0.0998,-0.009 0.0998,0.15607 0.19966,0.58194 0.0998,0.23523 0.39932,-1.27313 0.19966,-0.94581 0.0998,0.0647 0.29948,0.88022 0.49915,4.30923 0.19965,-1.28762 0.0998,-0.69544 0.49915,4.09462 0.0998,-0.43271 0.0998,-1.03009 0.0998,0.0624 0.19966,0.3987 0.59897,-6.73527 0.0998,0.20331 0.39932,1.40074 0.19965,0.43692 0.29949,4.19302 0.19966,2.75552 0.59897,4.9944 0.19966,0.29153 0.49914,-1.74136 0.6988,-4.03605 0.49915,-5.13351 0.0998,-0.21834 0.79863,4.11917 0.29948,5.40118 0.19966,2.64524 0.19966,-0.42699 0.19966,0.56666 0.0998,0.58947 0.29949,2.85173 0.49914,-2.90615 0.29949,-2.00621 0.0998,0.055 0.19966,-0.32674 0.19965,-0.63037 0.0998,-0.007 0.29949,0.43888 0.0998,0.051 0.0998,0.19433 0.19965,1.31968 0.29949,4.83085 0.0998,0.97694 0.0998,-0.66301 0.0998,0.0664 0.19965,-0.16905 0.69881,-3.6179 0.29948,-1.05647 0.0998,-0.22878 0.0998,0.45791 0.19966,-2.09638 0.39931,2.3012 0.0998,0.002 0.0998,0.15652 0.0998,0.39356 0.0998,-0.0262 0.19966,-0.78326 0.19965,-0.74219 0.49915,-3.80226 0.0998,0.69766 0.39931,5.24356 0.59897,5.15502 0.29949,-1.13188 0.0998,-0.0381 0.29948,1.72413 0.29949,-0.15176 0.0998,-0.30458 0.49914,-3.90792 0.0998,-0.29321 0.6988,5.77912 0.0998,0.23855 0.19966,1.15044 0.0998,-0.0269 0.59897,-3.13258 0.0998,0.0976 0.19966,-0.93375 0.0998,-1.31416 0.39931,4.09503 0.0998,-0.0311 0.29949,0.72418 0.39931,-1.38033 0.19966,0.68739 0.19966,0.4174 0.0998,0.0364 0.0998,0.21581 0.19966,-0.43514 0.0998,0.17217 0.19966,1.07636 0.0998,-0.25012 0.39931,-2.5465 0.19966,0.98649 0.29949,3.62489 0.0998,-0.13971 0.0998,0.10399 0.19966,1.27319 0.29949,0.94643 0.19965,-0.65945 0.19966,0.2041 0.29949,-0.72356 0.0998,0.17022 0.29948,0.99026 0.19966,0.26793 0.19966,1.63286 0.0998,0.86693 0.0998,-0.37459 0.29948,-3.71332 0.29949,-5.03628 0.19966,0.46634 0.39931,1.37948 0.19966,2.61794 0.49914,11.3758 0.49915,3.48401 0.19965,3.22971 0.0998,-0.01 0.29949,-1.74437 0.0998,-0.54902 0.29948,-2.80628 0.59898,-3.81405 0.19965,-2.29802 0.0998,0.22311 0.29949,2.96869 0.0998,-0.11974 0.0998,-0.23327 0.0998,0.15672 0.19965,-1.35142 0.0998,0.23715 0.59897,5.22345 0.0998,0.27783 0.0998,-0.16005 0.6988,-3.65663 0.0998,-0.27222 0.0998,-0.77188 0.29949,-5.02097 0.0998,0.0771 0.59897,1.57014 0.39931,0.37069 0.49915,0.23752 0.19966,-0.0661 0.6988,-0.27352 0.0998,-0.16135 0.0998,0.082 0.19965,-1.52634 0.0998,-0.6393 0.19966,0.70277 0.19966,1.03036 0.19965,3.42394 0.49915,10.1747 0.29948,2.73107 0.19966,0.72431 0.0998,0.64725 0.0998,-0.10823 0.29949,0.68003 0.59897,-5.73203 0.29949,-3.50364 0.29948,-4.4376 0.0998,-0.16778 0.59897,1.17223 0.29949,0.72605 0.19966,-0.0814 0.59897,-0.48692 0.0998,-0.0243 0.19965,0.51344 0.0998,0.7763 0.39932,6.74363 0.0998,-0.0646 0.19965,2.17808 0.19966,2.34182 0.29949,-2.52133 0.0998,-0.0546 0.49914,4.28727 0.19966,-0.63211 0.0998,0.0785 0.49914,2.13362 0.19966,0.43134 0.19966,-0.16046 0.59897,-1.56535 0.19966,-1.44681 0.29948,-3.86258 0.29949,-3.45271 0.0998,-1.07211 0.0998,0.0614 0.79863,1.06369 0.59897,0.15447 0.19966,-0.0705 0.19965,-0.14714 0.19966,1.95292 0.29949,7.30974 0.29948,7.64117 0.0998,-0.0725 0.29949,-5.1356 0.29949,-6.43062 0.19965,-0.21893 0.29949,0.0638 0.49914,-0.0891 0.29949,-0.23424 0.0998,-0.01 0.19966,1.08054 0.19965,3.07792 0.19966,2.31545 0.0998,-0.0557 0.19966,-0.75781 0.0998,0.0806 0.0998,-0.18327 0.0998,0.48655 0.59898,6.71541 0.0998,0.0502 0.19965,-1.0966 0.0998,-0.77213 0.0998,0.0804 0.19966,0.57923 0.19966,-0.52727 0.19965,-0.36839 0.0998,-0.008 0.29949,-1.85116 0.29949,1.54062 0.0998,-0.3214 0.29949,-3.0746 0.29949,0.0582 0.39931,0.0317 0.59898,-0.29701 0.19965,0.32188 0.0998,-0.019 0.19966,-0.27519 0.0998,-0.13584 0.39931,1.82517 0.29949,2.76758 0.29949,-0.65941 0.0998,0.4299 0.19966,3.78613 0.29949,7.09404 0.39931,1.72995 0.19966,0.68921 0.0998,-0.15645 0.29948,-1.51733 0.19966,0.17693 0.19966,0.25982 0.29949,1.91363 0.6988,3.22622 0.0998,1.15062 0.0998,2.78409 0.0998,-0.8483 0.19966,2.60996 0.0998,-0.30064 0.0998,-1.18915 0.49914,-14.0211 0.0998,-0.0488 0.49915,1.13876 0.29948,0.24006 0.29949,-0.007 1.19794,-0.78456 0.29949,-0.22971 0.0998,-0.11039 0.0998,0.41706 0.19965,3.42103 0.29949,5.49848 0.0998,0.67359 0.19966,2.80409 0.19965,1.49058 0.0998,-0.23358 0.0998,1.38523 0.19966,-1.13665 1.19795,-8.4669 0.29948,-0.045 0.19966,0.0459 1.49743,-1.11493 0.6988,-0.5345 0.19966,-0.22793 0.29949,3.9097 0.39931,7.34564 0.0998,0.35876 0.19966,3.38281 0.0998,0.46627 0.0998,-0.14408 0.49915,-4.24118 0.29949,-4.01094 0.19965,0.83541 0.19966,1.88935 0.39932,7.22946 0.19965,-1.01759 0.49915,-6.62495 0.29948,6.75698 0.19966,3.67657 0.19966,0.69376 0.0998,-0.0754 0.29948,-1.32646 0.0998,0.0497 0.29949,-0.61389 0.29949,1.60361 0.29948,-1.30139 0.29949,1.52791 0.0998,-0.47668 0.0998,0.40048 0.19965,2.08087 0.29949,3.92796 0.29948,1.14096 0.0998,-0.0355 0.29949,-1.15565 0.0998,0.10531 0.0998,0.64455 0.0998,-0.33058 0.19965,-1.56925 0.0998,0.18693 0.39932,2.85472 0.0998,-0.0516 0.29948,-1.68745 0.19966,1.38088 0.39932,3.619 0.0998,-0.28657 0.0998,-1.10479 0.59898,-21.03161 0.0998,-0.30256 0.19966,0.46655 0.29949,0.55241 0.29948,0.14457 0.39932,-0.16039 0.49914,-0.3862 0.39932,-0.47453 0.29948,-1.11565 0.39932,-0.0666 0.59897,-0.26448 0.6988,-0.41692 0.19966,2.85824 0.39932,11.04974 0.29948,6.82925 0.0998,0.37257 0.39932,-4.06362 0.19965,0.0656 0.0998,0.38983 0.0998,1.6019 0.0998,-0.33113 0.49914,-10.18781 0.19966,1.77506 0.19966,4.72824 0.79863,25.017 0.49914,9.79397 0.0998,0.91354 0.0998,-0.16111 0.49914,-3.87015 0.19966,-0.5669 0.0998,0.13221 0.0998,0.35133 0.19966,2.37159 0.79863,14.22691 0.29948,7.20322 0.19966,1.36656 0.19966,0.36956 0.19966,1.53729 0.6988,6.04391 0.49914,0.3425 0.0998,-0.0994 0.19966,-1.28889 0.6988,-9.94203 0.0998,0.14741 0.19966,0.61971 0.0998,-0.28848 0.19965,-2.08906 0.39932,-4.96155 0.39931,-2.27127 0.0998,-0.22293 1.09812,17.43645 0.0998,-0.67051 0.19965,-3.90326 0.39932,-10.28505 0.59897,-6.79815 0.19966,-0.69756 0.0998,-0.0487 0.19966,-1.70824 0.19965,-3.5471 0.59898,-18.37294 0.49914,-14.76785 0.19966,-1.86284 0.19965,0.65691 0.0998,-0.23488 0.0998,-0.92033 0.39932,-6.47946 0.0998,0.20095 0.19965,-0.22465 0.19966,-0.9259 0.29949,1.22377 0.39931,1.36379 0.49915,0.85905 0.49914,0.53365 0.0998,0.4225 0.19966,3.05846 1.09811,22.86266 0.49915,3.81186 0.19965,0.63344 0.0998,-0.22252 0.19966,-0.88377 0.39932,2.01741 0.19965,-0.14851 0.19966,-0.1133 0.19966,0.50261 0.0998,-0.0762 0.19965,-2.00792 0.29949,-6.38288 0.6988,-21.59453 0.0998,-0.0674 0.79863,2.43663 0.19966,2.2588 0.29949,7.49818 0.49914,14.12814 0.19966,2.89711 0.0998,0.1694 0.0998,-0.40716 0.29949,-3.27825 0.0998,-1.45729 0.59897,-17.13539 0.29949,-0.0449 0.19966,0.0645 0.39931,-1.60467 0.0998,-0.15141 0.29949,0.22464 0.29948,0.0434 0.49915,-0.1805 0.19965,2.48814 0.29949,7.44085 0.6988,19.93428 0.39932,3.35003 0.0998,0.45267 0.29948,-0.68704 0.99829,-5.51071 0.59897,-0.88234 0.0998,0.35633 0.49914,-1.78776 0.29949,-2.4255 0.29949,-8.45827 0.49914,-16.03262 0.19966,-1.60829 0.19966,0.72314 0.39931,1.38986 0.19966,0.37821 0.19966,1.45973 0.79863,8.48895 0.39931,5.01131 0.49915,3.72702 0.0998,-0.009 0.39932,-0.81428 0.29949,0.99204 0.39931,-2.40131 0.0998,-0.14848 0.19966,-1.75012 0.39931,-9.29485 0.19966,-0.61437 0.0998,-0.0796 0.19966,-0.36883 0.19965,0.059 0.59898,-0.37716 0.59897,-0.52032 0.19966,2.3696 0.49914,8.33048 0.0998,0.14751 0.19966,-0.19255 0.0998,-0.0617 0.19965,-0.6131 0.29949,-1.69574 0.19966,0.0568 0.0998,-0.15707 0.29948,-0.94902 0.0998,-0.055 0.19966,0.80031 0.59897,4.14729 0.39932,1.03164 0.0998,-0.0899 0.19966,-0.21844 0.19966,2.37734 0.29949,3.20967 0.0998,-0.55888 0.59897,-14.76525 0.29948,-1.45684 0.0998,-0.24003 0.19966,0.0224 0.39932,-0.16799 0.6988,-0.69102 0.99829,-1.05414 0.19965,1.36482 0.89846,13.97479 0.39932,3.73791 0.19965,0.32695 0.19966,-0.28958 0.29949,-0.38856 0.19965,-1.55761 0.79863,-14.25657 0.29949,-0.20505 0.29949,-0.19204 0.29948,-0.92306 0.29949,-0.14022 0.39932,-0.11995 0.29948,1.69036 0.19966,2.13897 0.49914,6.4899 0.19966,-0.42706 0.59897,5.66387 0.0998,-0.43014 0.0998,0.17789 0.19966,0.65325 0.19966,-1.79284 0.19965,-3.55607 0.29949,-5.60791 0.19966,-0.7848 0.39931,-0.57372 0.19966,1.75095 1.09812,17.64863 0.19965,0.81541 0.19966,0.38959 0.0998,-0.15994 0.39932,-3.12697 0.19965,-2.90485 0.6988,-14.71928 0.19966,-0.4698 0.39932,-0.18848 0.19965,1.89247 0.79863,13.31357 0.29949,5.0285 0.19966,2.29412 0.19966,0.72606 0.0998,-0.098 0.19966,-0.75524 0.59898,-4.43996 0.49914,-1.935 0.19966,-0.33195 0.0998,0.25735 0.0998,0.57211 0.49915,7.56928 0.29949,1.237 0.0998,-0.2431 0.99829,-9.62646 0.0998,-0.63951 0.29949,-3.78219 0.0998,-0.18882 0.19965,0.14056 0.19966,-0.7052 0.0998,0.0843 0.0998,-0.18816 0.19966,-1.23515 0.29948,-3.12124 0.39932,-6.57964 0.0998,-0.23571 0.49914,5.86858 0.6988,7.1612 0.19966,0.29489 0.49914,2.56486 0.0998,0.14977 0.0998,-0.17018 0.39931,-4.49582 0.19966,-2.29028 0.0998,-0.0455 0.29949,1.67293 0.6988,5.81484 0.0998,-0.0272 0.19965,-0.64375 0.59898,-4.55073 0.19965,-1.48479 0.29949,1.51647 0.0998,0.0278 0.29949,0.53439 0.19965,-0.78161 0.29949,-1.62628 0.0998,-0.0247 0.0998,0.10734 0.19965,-0.21827 0.0998,0.0632 0.29949,-0.76038 0.19966,0.52618 0.0998,-0.2528 0.19965,-1.83589 0.19966,-2.16232 0.0998,-0.25084 0.0998,0.16847 0.39931,3.66732 0.0998,0.0954 0.49915,1.99795 0.59897,-1.35673 0.19966,-0.44877 0.0998,0.23423 0.19965,1.07109 0.29949,-0.71435 0.0998,0.2939 0.29948,1.76362 0.0998,-0.78332 0.6988,-10.91343 0.19966,0.22495 0.0998,0.16375 0.19966,1.57813 0.19966,3.40435 0.39931,8.17464 0.49915,7.08383 0.29948,3.45203 0.0998,0.10504 0.19966,-0.4574 0.89846,-8.94424 0.29948,-4.08133 0.0998,0.0962 0.29949,1.81969 0.29949,-0.96704 0.19965,-0.96742 0.29949,2.12307 0.49914,2.5205 0.19966,-1.34002 0.79863,-6.96834 0.29949,-4.93301 0.19965,-0.28082 0.59898,0.14221 0.6988,-0.26352 0.6988,-0.37068 0.39931,-0.34836 0.29949,-1.58219 0.19966,0.16532 0.0998,0.0699 0.0998,0.4472 0.19965,2.74162 0.79863,15.672 0.49915,3.81446 0.19965,0.99735 0.0998,-0.33599 0.39932,-3.43665 0.89846,-15.54888 0.19966,-0.21193 0.29948,0.0704 0.39932,0.55786 0.29948,-0.29787 0.49915,-0.52816 0.0998,0.0676 0.0998,0.2779 0.0998,0.63821 0.89846,13.31587 0.0998,-0.10991 0.29949,-1.32471 0.39931,3.04809 0.19966,0.91905 0.19966,-0.29256 0.29948,0.93372 0.29949,0.98341 0.0998,0.11539 0.19966,-0.22266 0.39931,-1.65357 0.19966,-1.19679 0.29948,-3.39826 0.59898,-10.82954 0.19966,-0.87851 0.19965,-0.0143 0.29949,10e-4 0.59897,-0.29387 0.59897,-0.43106 0.19966,1.65635 0.19966,3.78377 0.49914,12.39588 0.0998,-0.19306 0.0998,-0.7398 0.59897,-11.47087 0.29949,-0.89049 0.79863,-1.429 0.0998,-0.0876 0.0998,0.27519 0.19966,1.58734 0.39931,5.04083 0.19966,-0.27787 0.19966,-0.24543 0.0998,0.33051 0.29949,3.77421 0.29949,3.51875 0.0998,0.38784 0.0998,-0.0312 0.49914,-2.21719 0.0998,-0.15002 0.49914,-2.64051 0.29949,-1.65347 0.19965,0.42055 0.0998,-0.23821 0.59898,-6.10384 0.49914,-0.96659 0.49914,-0.78237 0.19966,0.20543 0.0998,-0.17693 0.29949,-0.98626 0.0998,0.1642 0.39932,2.19694 0.19966,1.95463 0.0998,0.11566 0.19965,-0.42476 0.0998,0.25184 0.19966,3.12545 0.39932,8.81368 0.49914,2.84481 0.0998,-0.004 0.59897,-3.14649 0.0998,-0.23622 0.99829,2.73018 0.0998,0.71438 0.0998,1.96539 0.0998,-0.15063 0.19966,2.15677 0.0998,0.10326 0.0998,-0.93796 0.6988,-19.52904 0.19966,-0.43791 1.09811,-0.99705 1.09812,-1.25268 0.0998,-0.0995 0.0998,-0.27773 0.0998,0.13446 0.19965,2.69802 0.49915,9.18751 0.49914,4.34937 0.0998,-0.022 0.19966,-1.26474 0.89846,-8.95852 0.19966,-2.10773 0.29948,-0.90624 0.59897,-0.75569 0.79863,-1.07499 0.79864,-0.78367 0.19965,-0.12614 0.29949,-0.30424 0.19966,2.29579 0.6988,12.4698 0.19966,1.27039 0.19965,-1.22881 0.39932,-4.77263 0.19966,-2.83519 0.0998,-0.21903 0.0998,0.17831 0.0998,0.43058 0.19966,2.76693 0.29948,5.62113 0.0998,0.0861 0.0998,-0.27557 0.19966,-3.07847 0.29949,-4.95504 0.0998,0.77583 0.59898,10.24127 0.0998,0.1782 0.49914,-1.66412 0.19966,-0.68753 0.19966,0.77897 0.0998,0.29565 0.0998,-0.28626 0.19966,-1.07856 0.0998,-0.0786 0.0998,0.56653 0.0998,-0.019 0.0998,-0.6056 0.0998,0.0881 0.19966,1.62172 0.39932,4.77568 0.29948,1.14479 0.39932,-1.51219 0.0998,0.2157 0.19965,-1.19596 0.19966,-1.28823 0.39932,1.75286 0.0998,-0.035 0.29948,-2.07231 0.0998,0.0264 0.19966,1.34643 0.29948,2.57695 0.0998,-0.10382 0.0998,-1.14281 0.29949,-11.77593 0.29949,-10.60634 0.19965,-1.43818 0.19966,0.24968 0.39932,0.61725 0.29948,0.177 0.39932,0.10234 0.59897,-0.1369 0.0998,-0.0967 0.29948,-0.98766 0.39932,0.10446 0.49914,0.0148 0.6988,-0.0724 0.0998,-0.0145 0.19966,2.46804 0.29949,7.50975 0.39931,11.51865 0.0998,1.12716 0.0998,-0.30225 0.29949,-2.31432 0.19965,-0.20612 0.0998,0.24766 0.0998,1.24176 0.0998,-0.0256 0.59897,-10.84239 0.0998,0.41004 0.19966,3.71688 0.39932,15.84709 0.49914,16.26573 0.49914,13.97719 0.19966,1.36643 0.0998,-0.12755 0.49914,-1.3818 0.0998,0.0532 0.0998,0.23109 0.19966,2.04121 0.6988,13.00861 0.59897,15.69896 0.19966,0.46327 0.19966,1.58785 0.6988,10.11122 0.49914,1.38708 0.19966,0.3038 0.19966,-1.40811 0.49914,-9.00236 0.0998,-0.92214 0.19966,0.43134 0.19965,0.69095 0.0998,-0.50617 0.29949,-4.29365 0.19966,-2.51502 0.39931,-3.84658 0.19966,-0.98869 0.0998,1.55333 0.0998,-0.46467 0.89846,16.49643 0.19965,-3.5221 0.39932,-9.72872 0.6988,-9.47021 0.29949,-2.20565 0.29948,-6.25612 0.49915,-19.70244 0.79863,-34.84834 0.49914,-7.38289 0.29949,-6.52916 0.49914,-2.37686 0.0998,0.0708 0.99829,3.06045 0.6988,1.24514 0.19966,2.7931 0.39931,10.84784 0.39932,8.90587 0.59897,9.44686 0.39931,3.80195 0.0998,0.12162 0.19966,-0.49385 0.39932,1.95655 0.0998,0.0415 0.29948,-0.29917 0.19966,0.24037 0.0998,-0.10203 0.0998,-0.6278 0.29948,-5.09159 0.29949,-11.92112 0.39931,-15.79455 0.19966,-2.99124 0.0998,-0.22758 0.19966,0.42007 0.59897,1.8826 0.19966,3.07555 0.29948,8.81105 0.39932,12.36886 0.29949,4.64484 0.0998,0.19416 0.19966,-1.22627 0.19966,-2.40629 0.79863,-20.45168 0.49914,-1.59796 0.29949,-0.8859 0.59897,-0.16563 0.49915,-0.26848 0.19965,2.13786 0.29949,7.25717 0.79863,23.98879 0.29949,4.08849 0.19965,1.19041 0.19966,0.19372 0.39932,-1.7268 0.59897,-4.23744 0.59897,-2.12995 0.0998,0.11069 0.49914,-2.39724 0.29949,-2.76576 0.29949,-8.80803 0.59897,-20.86077 0.19966,-1.02488 0.19965,0.47935 0.59898,1.78887 0.6988,6.69776 0.99829,13.43006 0.19965,1.02773 0.0998,0.05 0.19966,-0.2628 0.19966,-0.40041 0.29948,0.61231 0.0998,-0.25999 0.39932,-2.48286 0.19966,-3.85871 0.29948,-7.53356 0.19966,-1.51585 0.39931,-0.95211 0.29949,-0.23379 0.6988,-0.72394 0.29949,-0.31817 0.19966,2.06046 0.59897,9.33369 0.29949,0.2107 0.0998,-0.12494 0.19966,-0.90981 0.29949,-1.16754 0.0998,-0.0407 0.0998,-0.16502 0.39931,-1.16325 0.19966,0.61543 0.6988,4.76269 0.29949,0.95831 0.0998,0.0122 0.19965,-0.14077 0.19966,2.05598 0.29949,3.56837 0.0998,-0.23495 0.29948,-8.63531 0.29949,-6.5097 0.29948,-2.08618 0.29949,-0.64215 1.3976,-1.78222 0.6988,-0.71664 0.19966,1.23186 1.3976,20.07761 0.19966,0.30842 0.39932,-0.28612 0.19965,-1.35817 0.29949,-7.16 0.39932,-8.25787 0.29948,-1.4862 1.09812,-1.95432 0.29948,-0.12204 0.19966,0.92848 0.19966,1.23419 0.6988,8.23064 0.0998,-0.13364 0.29949,2.56602 0.29948,3.04624 0.0998,-0.2166 0.29949,0.79446 0.19966,-1.56528 0.19965,-3.50025 0.39932,-7.15038 0.29948,-1.16843 0.19966,-0.50723 0.19966,1.37111 0.49914,9.47083 0.59898,9.97152 0.29948,1.57741 0.0998,0.23601 0.0998,-0.0688 0.29949,-2.02347 0.29948,-4.07931 0.79863,-17.35062 0.29949,-0.8099 0.19966,-0.31613 0.19965,1.66834 0.29949,6.81576 0.29949,4.71984 0.39931,5.61815 0.29949,4.83308 0.29949,1.28056 0.0998,-0.14827 0.19966,-1.00923 0.59897,-4.08688 0.29949,-1.67125 0.29949,-0.8646 0.0998,0.14299 0.0998,0.45241 0.59898,8.34767 0.19965,0.99232 0.0998,-0.10761 1.09812,-11.09324 0.39931,-4.68491 0.29949,-0.57443 0.19966,-0.49512 0.19966,-0.79425 0.39931,-4.21884 0.49914,-7.67131 0.19966,1.94099 0.99829,11.3087 0.29949,1.04616 0.49914,2.36319 0.0998,-0.11905 0.29948,-2.9652 0.29949,-4.06256 0.0998,-0.29554 0.0998,0.22964 0.39931,2.83578 0.49915,4.18332 0.0998,0.0856 0.19965,-0.50997 0.59898,-4.56052 0.19965,-1.70659 0.49915,1.63943 0.19966,0.19577 0.19965,-0.81795 0.29949,-1.85918 0.39931,-0.39808 0.0998,0.005 0.29949,-0.83032 0.19966,0.40631 0.0998,-0.25441 0.19965,-1.81589 0.29949,-2.71579 0.0998,0.0208 0.49914,3.71281 0.49915,2.08738 0.49914,-1.05301 0.29949,-0.93501 0.0998,0.13254 0.19965,0.97143 0.29949,-0.6839 0.0998,0.20745 0.29949,1.65823 0.0998,-0.68694 0.69881,-11.47724 0.19965,-0.004 0.19966,0.15529 0.19966,1.69971 0.89846,16.41982 0.59897,7.54346 0.19966,-0.37699 0.89846,-9.73715 0.29948,-4.57066 0.0998,-0.12032 0.29949,1.33834 0.49914,-2.02806 0.19966,1.24385 0.39931,3.12943 0.0998,0.42993 0.0998,-0.22964 0.79863,-6.23382 0.39932,-7.28669 0.19965,-0.53947 1.39761,-0.42918 0.59897,-0.3524 0.39931,-0.30115 0.29949,-1.34995 0.29949,0.14289 0.0998,0.38318 0.19965,2.5975 0.79863,16.02231 0.49915,4.26179 0.19966,1.09589 0.0998,-0.21735 0.39932,-3.31941 0.99829,-16.75577 0.29948,-0.26115 0.0998,0.0184 0.29949,0.47388 0.19965,-0.067 0.79863,-0.77946 0.0998,0.24883 0.0998,0.58916 0.99829,13.55527 0.29949,-1.03906 0.39931,2.94879 0.19966,0.98307 0.19966,-0.23228 0.29948,0.87645 0.29949,0.99776 0.19966,0.0932 0.19965,-0.47531 0.39932,-1.89346 0.29949,-2.80916 0.29948,-5.33991 0.39932,-7.35354 0.19965,-1.16836 0.19966,-0.13895 0.49915,-0.15111 0.99828,-0.71325 0.19966,1.60532 0.19966,3.79459 0.49914,12.88285 0.0998,0.0242 0.0998,-0.60276 0.6988,-12.01417 0.39932,-1.11757 0.6988,-1.31687 0.0998,0.21605 0.19965,1.4738 0.39932,5.11279 0.19966,-0.17063 0.19965,-0.22923 0.0998,0.29766 0.29949,3.66229 0.39931,4.14013 0.0998,0.0322 0.49915,-1.92938 0.0998,-0.17016 0.39931,-1.80766 0.29949,-2.78371 0.0998,-0.12491 0.19965,0.31715 0.0998,-0.26927 0.59898,-6.34513 0.39931,-0.97646 0.79863,-1.34081 0.19966,-0.52097 0.19966,-0.45579 0.19965,0.66756 0.29949,1.82016 0.19966,1.91405 0.0998,0.14117 0.19965,-0.39236 0.0998,0.20125 0.19966,2.98462 0.39931,8.94821 0.49915,3.2107 0.0998,0.0613 0.6988,-3.40432 0.49914,1.20371 0.29949,0.91213 0.19966,0.42268 0.0998,0.6966 0.0998,1.87281 0.0998,-0.0593 0.19966,2.17907 0.0998,0.14015 0.0998,-0.82932 0.79863,-20.27479 0.29948,-0.48351 0.59898,-0.65827 1.29777,-1.60327 0.29949,-0.4412 0.0998,0.14378 0.19965,2.62229 0.49915,9.16371 0.49914,4.56103 0.0998,0.0764 0.19966,-1.18011 0.6988,-7.01283 0.59897,-5.14814 0.89846,-1.47773 0.99829,-1.32834 0.79863,-0.78764 0.19966,1.73409 0.29948,5.80354 0.19966,3.70376 0.0998,0.87491 0.29949,4.4277 0.0998,0.36445 0.0998,-0.33503 0.39932,-3.65615 0.29949,-4.86897 0.0998,-0.33226 0.0998,0.0861 0.0998,0.35599 0.19966,2.64062 0.29949,5.64489 0.0998,0.17639 0.0998,-0.22338 0.19966,-2.96996 0.29949,-4.63439 0.0998,0.64762 0.59897,10.03013 0.0998,0.25163 0.6988,-2.4157 0.19966,0.67044 0.0998,0.29931 0.0998,-0.25403 0.19966,-1.0725 0.0998,-0.0709 0.19966,0.53673 0.0998,-0.51738 0.0998,0.16152 0.19966,1.51052 0.39932,4.7943 0.29948,1.24135 0.19966,-0.69904 0.19966,-0.75435 0.0998,0.15806 0.19966,-1.21805 0.19965,-1.30522 0.19966,0.80606 0.19966,0.7936 0.0998,-0.0332 0.39931,-2.12023 0.19966,1.25364 0.29948,2.59359 0.0998,0.0171 0.0998,-0.66369 0.79863,-24.75027 0.0998,-0.0293 0.59897,0.72736 0.49915,0.0908 0.39931,-0.0512 0.39932,-0.16648 0.29948,-0.79987 0.89846,-0.0375 0.79863,-0.18159 0.19966,2.37799 0.29949,7.44109 0.39931,11.73569 0.0998,1.25977 0.0998,-0.15282 0.39931,-2.29453 0.0998,-0.039 0.0998,0.24779 0.19966,1.23183 0.29949,-6.54272 0.19965,-4.12822 0.0998,-0.24481 0.0998,0.30413 0.19966,3.50923 0.39931,15.77033 0.49915,16.93158 0.49914,14.97465 0.19966,1.94764 0.0998,0.12539 0.49914,-0.61307 0.0998,0.12703 0.0998,0.29273 0.19966,2.17054 0.6988,13.67035 0.59897,16.28963 0.19966,0.53591 0.19966,1.78732 0.6988,10.72002 0.29948,0.92361 0.39932,1.0904 0.19966,-1.38533 0.49914,-8.95571 0.0998,-0.88837 0.39931,1.33365 0.0998,-0.49391 0.29949,-4.30468 0.19966,-2.43124 0.39931,-3.71116 0.19966,-0.82501 0.0998,1.74499 0.0998,-0.45069 0.89846,16.89622 0.19965,-3.20683 0.59898,-14.83371 0.29948,-2.08026 0.0998,-0.4349 0.59897,-7.27018 0.39932,-13.39029 0.6988,-32.6242 0.39932,-13.15209 0.39931,-7.93675 0.29949,-7.89822 0.49914,-3.88004 0.0998,-0.13347 0.19966,0.42384 0.49914,1.30998 0.49915,0.68979 0.39931,0.35853 0.0998,0.35609 0.19966,2.60325 0.39931,10.73022 0.39932,9.29092 0.59897,10.10547 0.39931,4.16774 0.0998,0.23875 0.19966,-0.36201 0.49914,2.06923 0.39932,-0.13286 0.0998,0.10162 0.0998,-0.107 0.19965,-1.92562 0.29949,-6.8374 0.79863,-28.72788 0.19966,-0.48495 0.59897,0.92862 0.19966,1.86061 0.29949,7.09794 0.6988,20.10738 0.19965,1.35721 0.0998,-0.2715 0.19966,-1.642 0.0998,-1.30426 0.39931,-13.94685 0.29949,-6.26348 0.29949,-1.3666 0.0998,-0.23639 0.39931,-1.80886 0.29949,-0.29746 0.6988,-0.51128 0.19966,-0.17721 0.19965,2.00789 0.29949,7.12763 0.89846,26.77768 0.39931,3.97697 0.19966,0.44453 0.0998,-0.27948 0.19966,-0.85128 0.0998,-0.27389 0.6988,-4.43643 0.49914,-1.6993 0.0998,0.0974 0.39931,-1.75728 0.29949,-1.86613 0.19966,-3.54111 0.39931,-14.79758 0.39932,-13.38176 0.19966,-1.54059 0.0998,0.0342 0.59897,1.25782 0.39931,3.50772 0.49915,6.25738 0.49914,7.31628 0.39932,4.23806 0.19965,0.57338 0.19966,-0.16273 0.19966,-0.33523 0.29948,0.84186 0.59898,-3.04535 0.0998,-1.15832 0.49914,-11.20386 0.29949,-1.44558 0.39931,-0.5209 0.59897,-0.79271 0.49915,-0.58958 0.19966,1.91274 0.59897,9.54008 0.29948,0.36894 0.0998,-0.0976 0.19966,-0.83864 0.29949,-1.19065 0.19965,-0.23499 0.39932,-1.19323 0.0998,0.15711 0.19966,1.09869 0.59897,4.1324 0.39931,1.06924 0.19966,-0.0988 0.19966,1.97018 0.29949,3.67571 0.0998,-0.13063 0.29949,-8.27757 0.29949,-6.74455 0.29948,-2.27626 0.29949,-0.8095 1.09812,-1.73238 0.99828,-1.17565 0.19966,1.1302 1.49743,21.05253 0.19966,0.16495 0.29949,-0.0407 0.19965,-1.23748 0.29949,-6.93272 0.39932,-8.62718 0.29948,-1.81376 0.6988,-1.80425 0.6988,-0.65516 0.19966,0.87361 0.19966,1.18692 0.6988,8.38751 0.0998,-0.0959 0.29949,2.52496 0.29948,3.12901 0.0998,-0.15004 0.29949,0.86145 0.19966,-1.39746 0.19965,-3.40452 0.39932,-7.31577 0.29948,-1.40482 0.19966,-0.60869 0.19966,1.19261 0.49914,8.89136 0.79863,12.79914 0.29949,1.22755 0.0998,-0.0113 0.29949,-1.90154 0.29948,-4.09931 0.79863,-18.20001 0.29949,-1.10675 0.19966,-0.34531 0.19965,1.46325 0.29949,6.64218 0.39931,6.73589 0.39932,6.70623 0.29949,3.47569 0.0998,0.17498 0.19966,-0.44264 1.19795,-6.97677 0.0998,-0.2056 0.0998,0.11789 0.0998,0.45347 0.79863,10.11684 0.0998,0.0229 0.6988,-6.30475 0.69881,-8.39008 0.19965,-0.84532 0.0998,-0.10353 0.49915,-1.80733 0.39931,-4.26662 0.49914,-8.04614 0.0998,0.49316 0.6988,8.42943 0.29949,3.75826 0.89846,4.23333 0.0998,-0.0582 0.29948,-2.78306 0.39932,-4.50072 0.0998,0.11169 0.29948,1.66213 0.59898,5.27569 0.0998,0.18063 0.0998,-0.10134 0.19966,-0.87481 0.6988,-5.52513 0.59898,1.67252 0.0998,0.05 0.19965,-0.74904 0.39932,-2.07094 0.19966,-0.23026 0.29948,-0.36343 0.19966,-0.58669 0.19966,0.31184 0.0998,-0.22773 0.19965,-1.76848 0.29949,-2.8455 0.0998,-0.0665 0.6988,4.81506 0.29949,1.13681 0.19965,-0.41463 0.29949,-0.54802 0.29949,-0.97533 0.0998,0.0967 0.19966,0.91412 0.19966,-0.19474 0.0998,-0.40932 0.0998,0.15337 0.29948,1.63628 0.0998,-0.59437 0.39932,-8.27866 0.19966,-2.85434 0.19965,-0.59594 0.29949,0.0491 0.19966,1.51904 0.29948,7.22018 0.29949,5.87231 0.99829,11.60588 0.0998,-0.16847 0.59897,-5.91979 0.29948,-3.59032 0.29949,-4.71495 0.0998,-0.27674 0.29949,1.20932 0.49914,-1.84379 0.19966,1.13729 0.39931,3.10522 0.19966,0.57337 0.0998,-0.37627 0.79863,-7.25922 0.39931,-7.67857 0.19966,-0.59742 1.3976,-0.023 0.89846,-0.41185 0.29949,-1.10027 0.29949,0.11525 0.0998,0.33664 0.19966,2.43224 0.89846,17.5157 0.49914,4.31543 0.0998,0.56108 0.0998,-0.0773 0.29949,-2.08495 0.19966,-2.72851 0.6988,-14.16077 0.19966,-1.3095 0.29948,-0.46878 0.0998,-0.02 0.39932,0.37949 0.29948,-0.3437 0.49915,-0.61646 0.0998,0.054 0.0998,0.22461 0.0998,0.55744 0.29949,5.20863 0.59897,8.39716 0.0998,0.26825 0.29949,-0.55262 0.29948,1.98162 0.29949,2.04546 0.19966,-0.0936 0.19965,0.57338 0.59898,1.53634 0.0998,-0.11714 0.29948,-1.00988 0.39932,-2.70676 0.29948,-4.56452 0.59898,-10.48527 0.19965,-0.74394 1.59726,-1.10736 0.19966,1.46335 0.19966,3.69931 0.59897,13.63497 0.0998,-0.40376 0.29949,-6.66982 0.29948,-4.61402 0.29949,-1.37454 0.59897,-1.48544 0.19966,-0.3649 0.0998,0.15268 0.19966,1.34194 0.39931,5.15797 0.39932,-0.13522 0.0998,0.23831 0.19965,2.02772 0.49915,5.94866 0.0998,0.15052 0.89845,-2.98944 0.0998,-0.40538 0.39932,-3.01737 0.0998,0.0103 0.0998,0.18686 0.0998,-0.26118 0.6988,-6.79021 0.59898,-1.45267 0.39931,-0.73671 0.19966,0.1234 0.19966,-0.13405 0.19966,-0.35972 0.0998,0.0992 0.19966,0.6666 0.19966,1.27833 0.19966,1.89655 0.0998,0.2181 0.0998,-0.088 0.0998,-0.24245 0.0998,0.20382 0.19966,2.70288 0.49914,10.05537 0.39932,2.90639 0.0998,0.19605 0.19965,-1.16888 0.39932,-1.80941 0.0998,-0.27495 0.19966,0.23255 0.89845,2.79748 0.19966,1.84805 0.29949,2.44943 0.0998,-0.64972 0.29948,-10.11752 0.29949,-8.77556 0.19966,-1.7677 0.29948,-0.84371 1.29778,-1.80382 0.89846,-1.03938 0.0998,0.17255 0.19965,2.49852 0.59898,10.52636 0.39931,3.81573 0.0998,0.24286 0.0998,-0.2804 0.29948,-2.33504 0.69881,-7.43674 0.29948,-2.92835 0.29949,-0.85401 1.49743,-2.48102 0.99829,-0.98611 0.19966,1.56267 0.29948,5.64517 0.29949,4.93069 0.29948,4.66203 0.0998,0.58221 0.0998,-0.13782 0.29949,-2.3437 0.19966,-2.7509 0.19965,-3.0473 0.19966,-0.53234 0.0998,0.26249 0.19966,2.34185 0.29948,5.70508 0.0998,0.40983 0.0998,-0.0594 0.19966,-2.59442 0.29949,-4.7144 0.0998,0.34901 0.69881,10.42046 0.59897,-1.65679 0.0998,-0.33647 0.0998,0.13785 0.19965,0.73764 0.0998,-0.18776 0.19966,-0.95375 0.0998,-0.0785 0.19966,0.59317 0.0998,-0.36021 0.0998,0.17622 0.19966,1.35461 0.49914,5.5155 0.19966,0.87977 0.0998,-0.12022 0.29949,-1.08191 0.0998,0.1058 0.19965,-1.10288 0.19966,-1.35563 0.0998,0.13025 0.29949,1.22021 0.0998,0.0206 0.39931,-2.13225 0.19966,1.06157 0.39931,2.74658 0.0998,-0.48737 0.29949,-11.13396 0.39931,-13.14732 0.19966,-1.12709 0.19966,-0.0314 0.39931,0.17201 0.69881,-0.0192 0.59897,-0.17875 0.29948,-0.65647 0.29949,0.0199 0.59897,-0.0326 0.79863,-0.11076 0.19966,2.13715 0.29949,7.2261 0.49914,13.88677 0.0998,0.28253 0.49914,-1.62498 0.0998,0.22317 0.19966,1.26673 0.19966,-2.9987 0.29948,-7.21072 0.0998,-0.59115 0.0998,0.0517 0.0998,0.8847 0.19966,4.88551 1.3976,50.27217 0.19966,1.69649 0.29948,0.43563 0.19966,0.0126 0.19966,0.70435 0.19966,2.52557 0.59897,12.69622 0.59897,17.39337 0.19966,0.59327 0.19966,2.1506 0.6988,12.07874 0.19966,0.73969 0.49914,2.04226 0.19966,-1.34381 0.49914,-9.02618 0.0998,-0.81856 0.39931,1.84176 0.0998,-0.5581 0.29949,-4.56525 0.19966,-2.3248 0.39931,-3.6755 0.19966,-0.56721 0.0998,2.27685 0.0998,-0.57492 0.79863,17.99592 0.0998,0.33556 0.19965,-3.65807 0.49915,-13.61964 0.6988,-9.218 0.29949,-2.0146 0.29948,-6.29006 0.59897,-22.23671 0.69881,-28.83338 0.59897,-15.90449 0.29948,-7.61299 0.49915,-5.87111 0.19966,-0.30767 0.29948,0.26249 0.6988,0.53073 0.39932,0.18228 0.0998,0.2468 0.19966,2.25028 0.29948,7.43335 0.6988,18.23806 0.49915,8.65993 0.29948,3.85322 0.19966,0.52152 0.0998,0.07 0.49914,2.62044 0.19966,0.033 0.0998,-0.0114 0.29949,0.34976 0.0998,-0.50539 0.29949,-4.70796 0.29949,-11.27932 0.49914,-20.10977 0.29949,-3.63755 0.19966,-0.39538 0.39931,-0.21643 0.19966,1.38811 0.19966,3.71547 0.49914,16.71615 0.39931,9.21796 0.19966,1.00865 0.19966,-1.0552 0.0998,-1.08582 0.29948,-9.52059 0.39932,-10.99459 0.29949,-2.43978 0.79863,-3.23509 0.6988,-1.15349 0.19965,-0.25277 0.0998,0.49902 0.19966,2.77501 0.29949,8.30634 0.6988,23.39381 0.39931,7.52284 0.29949,1.96525 0.0998,-0.0185 0.19966,-0.49035 0.0998,-0.12672 0.89846,-4.57336 0.19965,-0.52533 0.0998,0.10495 0.19966,-0.79069 0.49914,-2.61877 0.19966,-3.33253 0.39932,-14.3899 0.49914,-16.7692 0.19966,-1.742 0.19965,-0.43662 0.29949,-0.0767 0.0998,0.0258 0.0998,0.23451 0.29948,2.1145 0.59898,7.03711 0.6988,10.67659 0.29949,2.94102 0.19965,0.52697 0.19966,-0.0623 0.0998,-0.11134 0.29949,0.85638 0.19965,-0.57033 0.49915,-3.1372 0.59897,-12.62889 0.39931,-1.96326 0.99829,-2.16759 0.29949,-0.51519 0.0998,0.43877 0.19965,2.7032 0.39932,7.51153 0.19966,1.26509 0.19965,0.53261 0.0998,0.0438 0.0998,-0.16868 0.49915,-1.6569 0.19965,-0.5197 0.29949,-0.89892 0.0998,0.0446 0.19966,0.91046 0.79863,5.31168 0.19965,0.47015 0.19966,0.0697 0.0998,0.53443 0.49914,5.28774 0.19966,-4.1139 0.39932,-10.24942 0.29948,-2.89335 0.49915,-1.93596 0.6988,-1.69721 0.6988,-1.21302 0.49914,-0.63842 0.0998,0.27695 0.0998,0.6106 0.49914,7.86448 0.89846,14.78648 0.29949,1.29098 0.29949,0.46857 0.19965,-0.79316 0.19966,-3.50532 0.59897,-13.2699 0.29949,-2.10947 0.6988,-2.49732 0.39932,-0.80192 0.19965,-0.13717 0.0998,0.17724 0.29949,1.54949 0.39931,5.72306 0.29949,3.22025 0.0998,0.13728 0.29949,2.49567 0.29948,3.42041 0.19966,0.45419 0.19966,0.79606 0.0998,-0.24204 0.19965,-1.83674 0.6988,-11.19222 0.29949,-1.54808 0.0998,0.0821 0.0998,0.57136 0.29948,4.75649 0.99829,17.57228 0.29949,1.58477 0.19966,-0.60379 0.19965,-1.49034 0.19966,-2.67952 0.99829,-20.33833 0.29949,-1.20021 0.0998,0.16423 0.19966,2.06272 1.19795,22.45468 0.29948,2.64092 0.19966,0.23811 0.49914,-2.41186 0.39932,-2.74128 0.39931,-1.53305 0.0998,0.006 0.0998,0.3287 0.29949,4.66562 0.29949,4.69988 0.29948,2.34994 0.39932,-2.00768 0.6988,-7.27758 0.39931,-5.26924 0.89846,-5.37957 0.19966,-2.76919 0.49914,-9.41411 0.0998,-0.13018 0.29949,2.5029 0.49914,6.54744 0.29949,3.39384 0.49914,3.09932 0.29949,1.55668 0.0998,0.0695 0.19966,-1.36851 0.29948,-3.87207 0.19966,-2.05806 0.0998,-0.18084 0.19966,0.58286 0.19965,1.41153 0.59898,4.88038 0.0998,0.0579 0.0998,-0.12953 0.39932,-2.21575 0.39931,-3.54898 0.0998,0.11977 0.39932,1.11232 0.19966,0.15704 0.19965,-0.71438 0.39932,-2.3321 0.79863,-1.43639 0.0998,0.0845 0.0998,-0.19525 0.19965,-1.66125 0.29949,-3.20389 0.0998,-0.32842 0.0998,0.42634 0.49914,3.74315 0.29949,1.56648 0.19966,0.38 0.49914,-1.10524 0.19966,-0.69027 0.0998,-8.9e-4 0.19965,0.73188 0.19966,-0.0476 0.19966,-0.32897 0.29948,1.56165 0.0998,-0.38596 0.29949,-5.30894 0.29949,-5.72857 0.29948,-1.53709 0.19966,-0.22858 0.0998,0.25454 0.19966,2.31528 0.79863,15.73064 0.6988,10.00561 0.0998,0.11871 0.29948,-2.05995 0.59898,-6.78315 0.29948,-5.11972 0.0998,-0.65064 0.0998,0.0505 0.19966,0.47837 0.29948,-0.75076 0.19966,-0.70509 0.19966,0.96954 0.49914,3.42609 0.0998,0.23064 0.0998,-0.23992 0.59897,-4.94805 0.19966,-1.85445 0.59897,-9.24464 0.29949,-0.69619 0.49914,-0.56893 1.09812,-0.93559 0.39931,-0.28191 0.19966,-0.52354 0.19966,-0.0265 0.19966,-0.0586 0.0998,0.22441 0.19966,1.99655 0.49915,11.69698 0.49914,8.58575 0.39931,4.4451 0.19966,1.14527 0.0998,-0.18484 0.29949,-2.03146 0.39931,-7.49047 0.59897,-11.26894 0.29949,-1.35022 0.19966,-0.32332 0.19966,0.0158 0.19965,-0.23927 0.79863,-1.36139 0.0998,0.12864 0.0998,0.43217 0.19966,2.65438 0.39931,6.17608 0.49915,6.32454 0.19966,0.48584 0.29948,2.05076 0.29949,2.44958 0.29948,0.4859 0.59898,2.34295 0.19965,0.11741 0.29949,-0.7922 0.39932,-2.56119 0.29948,-4.44417 0.6988,-12.77298 0.29949,-1.2148 0.59897,-1.15555 0.6988,-1.00811 0.0998,-0.12062 0.0998,0.2755 0.19966,2.14975 0.29949,7.73944 0.39931,9.48387 0.0998,0.17862 0.19966,-2.97168 0.39931,-7.30871 0.39932,-2.43097 0.59897,-2.10609 0.19966,-0.54011 0.0998,0.0351 0.0998,0.31722 0.19966,2.02669 0.29949,3.99077 0.29949,0.50727 0.0998,-0.0426 0.0998,0.27002 0.19966,1.83229 0.59897,7.12212 0.0998,-0.0279 0.29949,-0.64729 0.0998,0.0985 0.0998,-0.084 0.29948,-1.18648 0.19966,-1.29186 0.29949,-2.34422 0.29948,-0.26259 0.19966,-2.24456 0.29949,-3.83966 0.39931,-2.18201 0.59897,-1.99042 0.29949,-0.52995 0.19966,-0.14416 0.29948,-0.28516 0.29949,0.88648 0.19966,1.08781 0.29948,2.24719 0.0998,0.0712 0.0998,-0.18543 0.0998,0.16936 0.19966,2.34754 0.59897,11.55996 0.29949,3.15772 0.0998,0.20649 0.59897,-1.89764 0.0998,0.036 0.19966,0.3775 0.6988,2.06368 0.0998,0.57618 0.29948,3.14943 0.19966,1.68314 0.0998,-0.27633 0.19966,-5.24489 0.49914,-14.85824 0.29949,-2.72929 0.39931,-1.75516 0.79863,-2.1643 0.59897,-1.14134 0.49915,-0.69147 0.0998,0.1532 0.19965,2.0692 0.79863,13.86311 0.39932,2.68829 0.19966,-0.93817 0.49914,-4.70419 0.6988,-7.71523 0.49915,-1.79995 0.59897,-1.53463 0.79863,-1.39054 0.6988,-0.86223 0.0998,-0.10607 0.19966,1.23295 0.29948,5.29182 0.39932,7.64467 0.29948,4.41892 0.0998,0.32048 0.0998,-0.22715 0.29949,-2.07772 0.39931,-5.36826 0.0998,-0.29027 0.0998,0.0413 0.0998,0.52923 0.19966,3.14087 0.29948,4.65782 0.0998,0.25095 0.0998,-0.50841 0.49914,-6.20847 0.19966,2.83152 0.39932,7.00745 0.19965,0.85731 0.59898,-1.15699 0.0998,0.073 0.19965,0.7103 0.0998,-0.0408 0.29949,-0.85155 0.19966,0.66157 0.0998,-0.0838 0.0998,0.12847 0.19966,1.19983 0.59897,6.83528 0.19966,0.72373 0.19966,-0.45076 0.0998,-0.17615 0.0998,0.10279 0.0998,-0.21208 0.29949,-1.85126 0.0998,0.0262 0.39931,1.21281 0.19966,-1.22011 0.19966,-0.81792 0.0998,0.23948 0.19966,1.46424 0.29948,2.12591 0.0998,-0.26783 0.19966,-5.56725 0.49914,-18.8986 0.29949,-3.44552 0.29949,-1.1723 0.49914,-1.03373 0.59897,-0.77048 0.6988,-0.73914 0.19966,-0.0933 0.89846,-0.47854 0.59897,-0.23759 0.0998,0.54776 0.19966,2.92009 0.29948,8.48067 0.39932,12.31307 0.19966,1.45448 0.19965,-0.27214 0.0998,0.0306 0.19966,0.48333 0.19966,1.57699 0.19966,-2.11612 0.39931,-7.92873 0.0998,-0.32579 0.0998,0.42648 0.19966,3.93077 0.39931,16.88931 1.19795,46.69287 0.39931,2.4018 0.19966,1.19223 0.19966,2.47652 0.49914,12.9127 0.29949,11.25282 0.39931,18.16587 0.59897,14.23246 0.99829,30.6822 0.29949,5.49187 0.19966,0.61199 0.29948,-3.38551 0.29949,1.71995 0.39932,10.0117 0.0998,0.32386 0.29949,-0.72851 0.0998,-0.87734 0.0998,3.22275 0.0998,-0.26147 0.49914,6.54541 0.0998,7.01454 0.0998,-1.14332 0.39931,21.32915 0.49915,19.73661 0.29948,2.23391 0.0998,0.0467 0.0998,0.40836 0.29949,9.96973 0.0998,0.4851 0.6988,24.05611 0.39931,6.13956 0.39932,3.32609 0.19965,2.13778 0.0998,-0.0675 0.39932,3.47694 0.59897,8.21227 0.19966,-1.29223 0.39931,5.00409 1.39761,10.26001 0.6988,3.21411 0.89846,12.85109 0.19965,1.48456 0.0998,1.47165 0.0998,-0.39314 0.0998,0.31355 0.0998,-0.0861 0.29949,1.69852 0.0998,-0.55698 0.0998,0.26284 0.19966,-0.93985 0.29949,2.34532 0.0998,-0.25412 0.29948,0.26085 0.19966,0.44195 0.19966,0.6487 0.0998,-0.0839 0.39931,-1.81023 0.39932,-4.41865 0.19965,-0.46073 0.0998,-0.01 0.19966,1.32277 0.29949,1.14596 0.39931,0.62939 0.0998,0.0944 0.59897,6.67108 0.19966,2.15627 0.0998,-0.98537 0.19966,1.39601 0.0998,-0.005 0.39932,-2.17052 0.19966,-0.64796 0.29948,-3.30442 0.0998,-0.18085 0.0998,0.1146 0.19966,1.31672 0.29949,0.69764 0.39931,0.32412 0.6988,0.23342 0.59897,0.12458 0.79863,7.68315 0.0998,-0.30412 0.0998,0.21404 0.19966,1.30552 0.0998,-0.42094 0.0998,0.66357 0.0998,-0.55765 0.19965,0.38632 0.0998,-0.45962 0.19966,0.17445 0.19966,-0.42301 0.0998,0.67687 0.0998,-0.03 0.0998,-0.34137 0.19966,0.293 0.0998,-0.0329 0.29949,0.56445 0.19965,0.24118 0.0998,-0.15492 0.29949,0.90552 0.19966,-0.46647 0.19965,0.3429 0.19966,-0.17421 0.0998,0.10761 0.79863,-4.51854 0.0998,-0.0483 0.0998,0.20633 0.19966,0.84568 0.29948,0.39183 0.29949,0.13013 1.69709,4.38806 0.19965,0.18041 0.29949,-0.15477 0.29949,0.15887 0.0998,0.49978 0.0998,-0.0243 0.0998,0.13722 0.19966,-0.4021 0.0998,0.002 0.19966,0.26378 0.19966,-0.57099 0.19965,-1.34792 0.0998,-0.28694 0.19966,0.6675 0.29949,0.25663 0.59897,0.0664 0.89846,-0.002 0.39931,2.33492 0.0998,-0.0257 0.19966,0.25309 0.19966,-0.4085 0.19965,0.15814 0.49915,-0.26693 0.19965,0.36397 0.29949,-0.1065 0.29949,0.4293 0.49914,1.17424 0.0998,-0.17467 0.0998,-0.01 0.29949,0.46522 0.29948,-0.064 0.0998,0.16317 0.29949,1.27741 0.19965,0.16362 0.49915,-2.67565 0.19966,0.61607 0.29948,0.22187 2.39589,-0.0166 0.59898,1.90033 0.0998,0.15878 0.29949,1.04599 0.39932,0.76003 0.0998,-0.0782 0.19965,0.0892 0.49915,0.31081 0.39931,-1.10656 0.19966,-0.48939 0.19966,-0.18745 0.19965,0.39278 0.49915,0.0754 0.89846,-0.0457 0.19965,0.0198 0.89846,1.88672 0.19966,-0.2388 0.29949,0.84712 0.19965,0.50068 0.19966,-0.27496 0.29949,0.5141 0.59897,-1.29305 0.29949,0.33705 0.29948,0.0724 0.0998,-0.007 1.39761,3.76225 0.39931,0.49334 0.0998,-0.01 0.19966,-0.10264 0.0998,0.002 0.29948,-0.47516 0.39932,-1.00332 0.6988,0.19229 0.19966,0.0146 0.39931,1.5459 0.19966,0.57345 0.19966,0.20391 1.19794,4.55187 1.19795,0.0114 0.6988,-0.0275 0.0998,-0.1022 0.59897,-9.81185 0.89846,-7.432 2.29606,-19.93294 1.19794,-11.87356 1.19795,-16.30213 2.49572,-43.26423 0.79863,-19.70557 0.6988,-22.96358 0.6988,-31.05657 0.6988,-43.55657 0.99829,-61.56842 0.99829,-47.48839 1.3976,-56.57603 0.49915,-10.98809 0.49914,-6.12224 0.59897,-4.31881 0.59897,-2.89893 0.69881,-2.45447 0.89845,-2.32946 0.99829,-1.95103 1.29778,-1.88986 1.09811,-1.18707 0.79863,-0.67639 1.59726,-0.99663 0.89846,-0.42336 1.49744,-0.56814 1.99657,-0.56587 2.59555,-0.76874 v 0"
           style="fill:none;stroke:#ff7f0e;stroke-width:1.5;stroke-dasharray:5.55, 2.4;stroke-dashoffset:0"
           id="path314" />
      </g>
      <g
         id="patch_3">
        <path
           d="M 94.191875,789.265 V 42.26625"
           style="fill:none;stroke:#000000;stroke-width:0.8;stroke-linecap:square;stroke-linejoin:miter"
           id="path317" />
      </g>
      <g
         id="patch_4">
        <path
           d="M 994.53758,789.265 V 42.26625"
           style="fill:none;stroke:#000000;stroke-width:0.8;stroke-linecap:square;stroke-linejoin:miter"
           id="path320" />
      </g>
      <g
         id="patch_5">
        <path
           d="M 94.191875,789.265 H 994.53758"
           style="fill:none;stroke:#000000;stroke-width:0.8;stroke-linecap:square;stroke-linejoin:miter"
           id="path323" />
      </g>
      <g
         id="patch_6">
        <path
           d="M 94.191875,42.26625 H 994.53758"
           style="fill:none;stroke:#000000;stroke-width:0.8;stroke-linecap:square;stroke-linejoin:miter"
           id="path326" />
      </g>
      <g
         id="text_18">
        <g
           id="patch_7">
          <path
             d="m 688.42004,302.22811 h 206.7 q 9,0 9,-9 v -56.74219 q 0,-9 -9,-9 h -206.7 q -9,0 -9,9 v 56.74219 q 0,9 9,9 z"
             style="opacity:0.5;fill:#f5deb3;stroke:#000000;stroke-linejoin:miter"
             id="path329" />
        </g>
        <!-- $MAE  = 32.12%$ -->
        <g
           transform="matrix(0.3,0,0,-0.3,688.42004,257.69686)"
           id="g360">
          <defs
             id="defs340">
            <path
               d="M 16.890625,72.90625 H 31.6875 l 8.5,-49.125 28.21875,49.125 h 15.1875 L 69.390625,0 H 59.8125 L 72.21875,63.921875 43.609375,14.015625 h -9.625 L 24.703125,64.109375 12.3125,0 h -9.625 z"
               id="DejaVuSans-Oblique-77" />
            <path
               d="M 36.8125,72.90625 H 48 L 61.53125,0 H 51.21875 L 48.1875,18.703125 H 15.375 L 5.078125,0 H -5.328125 Z M 40.375,63.1875 19.921875,26.90625 H 46.6875 Z"
               id="DejaVuSans-Oblique-65" />
            <path
               d="m 16.890625,72.90625 h 46.09375 L 61.375,64.59375 H 25.09375 l -4.1875,-21.578125 h 34.8125 L 54.109375,34.71875 H 19.28125 L 14.203125,8.296875 H 51.3125 L 49.703125,0 H 2.6875 Z"
               id="DejaVuSans-Oblique-69" />
            <path
               d="M 10.59375,45.40625 H 73.1875 V 37.203125 H 10.59375 Z m 0,-19.921875 H 73.1875 V 17.1875 H 10.59375 Z"
               id="DejaVuSans-61" />
            <path
               d="M 40.578125,39.3125 Q 47.65625,37.796875 51.625,33 q 3.984375,-4.78125 3.984375,-11.8125 0,-10.78125 -7.421875,-16.703125 -7.421875,-5.90625 -21.09375,-5.90625 -4.578125,0 -9.4375,0.90625 -4.859375,0.90625 -10.03125,2.71875 v 9.515625 q 4.09375,-2.390625 8.96875,-3.609375 4.890625,-1.21875 10.21875,-1.21875 9.265625,0 14.125,3.65625 4.859375,3.65625 4.859375,10.640625 0,6.453125 -4.515625,10.078125 -4.515625,3.640625 -12.5625,3.640625 h -8.5 v 8.109375 h 8.890625 q 7.265625,0 11.125,2.90625 3.859375,2.90625 3.859375,8.375 0,5.609375 -3.984375,8.609375 -3.96875,3.015625 -11.390625,3.015625 -4.0625,0 -8.703125,-0.890625 Q 15.375,64.15625 9.8125,62.3125 v 8.78125 q 5.625,1.5625 10.53125,2.34375 4.90625,0.78125 9.25,0.78125 11.234375,0 17.765625,-5.109375 6.546875,-5.09375 6.546875,-13.78125 0,-6.0625 -3.46875,-10.234375 -3.46875,-4.171875 -9.859375,-5.78125 z"
               id="DejaVuSans-51" />
            <path
               d="M 19.1875,8.296875 H 53.609375 V 0 H 7.328125 v 8.296875 q 5.609375,5.8125 15.296875,15.59375 9.703125,9.796875 12.1875,12.640625 4.734375,5.3125 6.609375,9 1.890625,3.6875 1.890625,7.25 0,5.8125 -4.078125,9.46875 -4.078125,3.671875 -10.625,3.671875 -4.640625,0 -9.796875,-1.609375 -5.140625,-1.609375 -11,-4.890625 v 9.96875 Q 13.765625,71.78125 18.9375,73 q 5.1875,1.21875 9.484375,1.21875 11.328125,0 18.0625,-5.671875 6.734375,-5.65625 6.734375,-15.125 0,-4.5 -1.6875,-8.53125 Q 49.859375,40.875 45.40625,35.40625 44.1875,33.984375 37.640625,27.21875 31.109375,20.453125 19.1875,8.296875 Z"
               id="DejaVuSans-50" />
            <path
               d="M 10.6875,12.40625 H 21 V 0 H 10.6875 Z"
               id="DejaVuSans-46" />
            <path
               d="m 12.40625,8.296875 h 16.109375 v 55.625 L 10.984375,60.40625 v 8.984375 l 17.4375,3.515625 H 38.28125 V 8.296875 H 54.390625 V 0 H 12.40625 Z"
               id="DejaVuSans-49" />
          </defs>
          <use
             transform="translate(0,0.78125)"
             xlink:href="#DejaVuSans-Oblique-77"
             id="use342"
             x="0"
             y="0"
             width="100%"
             height="100%" />
          <use
             transform="translate(86.279297,0.78125)"
             xlink:href="#DejaVuSans-Oblique-65"
             id="use344"
             x="0"
             y="0"
             width="100%"
             height="100%" />
          <use
             transform="translate(154.6875,0.78125)"
             xlink:href="#DejaVuSans-Oblique-69"
             id="use346"
             x="0"
             y="0"
             width="100%"
             height="100%" />
          <use
             transform="translate(237.35352,0.78125)"
             xlink:href="#DejaVuSans-61"
             id="use348"
             x="0"
             y="0"
             width="100%"
             height="100%" />
          <use
             transform="translate(340.625,0.78125)"
             xlink:href="#DejaVuSans-51"
             id="use350"
             x="0"
             y="0"
             width="100%"
             height="100%" />
          <use
             transform="translate(404.24805,0.78125)"
             xlink:href="#DejaVuSans-50"
             id="use352"
             x="0"
             y="0"
             width="100%"
             height="100%" />
          <use
             transform="translate(467.87109,0.78125)"
             xlink:href="#DejaVuSans-46"
             id="use354"
             x="0"
             y="0"
             width="100%"
             height="100%" />
          <use
             transform="translate(499.6582,0.78125)"
             xlink:href="#DejaVuSans-49"
             id="use356"
             x="0"
             y="0"
             width="100%"
             height="100%" />
          <use
             transform="translate(563.28125,0.78125)"
             xlink:href="#DejaVuSans-50"
             id="use358"
             x="0"
             y="0"
             width="100%"
             height="100%" />
        </g>
        <!-- $RMSE = 17.86%$ -->
        <g
           transform="matrix(0.3,0,0,-0.3,688.42004,288.18905)"
           id="g389">
          <defs
             id="defs367">
            <path
               d="m 25.203125,64.796875 -4.984375,-25.875 h 12.6875 q 7.46875,0 12.078125,4.125 4.625,4.125 4.625,10.765625 0,5.3125 -3.109375,8.140625 -3.09375,2.84375 -8.90625,2.84375 z M 43.3125,35.015625 q 3.125,-0.734375 5.203125,-3.625 2.078125,-2.875 4.8125,-11.46875 L 59.515625,0 H 49.125 l -5.71875,18.703125 q -2.1875,7.21875 -5.078125,9.65625 Q 35.453125,30.8125 29.5,30.8125 H 18.609375 L 12.59375,0 H 2.6875 l 14.203125,72.90625 h 22.21875 q 10.109375,0 15.5,-4.578125 5.40625,-4.5625 5.40625,-13.15625 0,-7.609375 -4.59375,-13.1875 -4.59375,-5.5625 -12.109375,-6.96875 z"
               id="DejaVuSans-Oblique-82" />
            <path
               d="m 60.296875,70.515625 -1.890625,-9.625 q -4.9375,2.640625 -9.796875,3.984375 -4.859375,1.34375 -9.40625,1.34375 -8.828125,0 -14.0625,-3.859375 Q 19.921875,58.5 19.921875,52.09375 q 0,-3.515625 1.921875,-5.390625 1.9375,-1.875 9.9375,-4.03125 l 5.921875,-1.453125 q 10,-2.59375 13.90625,-6.578125 3.90625,-3.96875 3.90625,-11.15625 0,-11.03125 -8.671875,-17.96875 -8.65625,-6.9375 -22.8125,-6.9375 -5.8125,0 -11.671875,1.15625 Q 6.5,0.875 0.59375,3.21875 l 2,10.15625 Q 8.015625,10.015625 13.453125,8.296875 18.890625,6.59375 24.3125,6.59375 q 9.234375,0 14.796875,4.09375 5.5625,4.109375 5.5625,10.703125 0,4.390625 -2.21875,6.65625 -2.21875,2.28125 -9.546875,4.125 L 27,33.6875 q -10.109375,2.640625 -13.796875,6.078125 -3.6875,3.453125 -3.6875,9.65625 0,10.875 8.375,17.828125 8.375,6.96875 21.8125,6.96875 5.21875,0 10.34375,-0.9375 5.125,-0.921875 10.25,-2.765625 z"
               id="DejaVuSans-Oblique-83" />
            <path
               d="m 8.203125,72.90625 h 46.875 V 68.703125 L 28.609375,0 H 18.3125 L 43.21875,64.59375 H 8.203125 Z"
               id="DejaVuSans-55" />
            <path
               d="m 31.78125,34.625 q -7.03125,0 -11.0625,-3.765625 -4.015625,-3.765625 -4.015625,-10.34375 0,-6.59375 4.015625,-10.359375 4.03125,-3.765625 11.0625,-3.765625 7.03125,0 11.078125,3.78125 4.0625,3.796875 4.0625,10.34375 0,6.578125 -4.03125,10.34375 Q 38.875,34.625 31.78125,34.625 Z m -9.859375,4.1875 Q 15.578125,40.375 12.03125,44.71875 8.5,49.078125 8.5,55.328125 q 0,8.734375 6.21875,13.8125 6.234375,5.078125 17.0625,5.078125 10.890625,0 17.09375,-5.078125 6.203125,-5.078125 6.203125,-13.8125 0,-6.25 -3.546875,-10.609375 Q 48,40.375 41.703125,38.8125 q 7.125,-1.65625 11.09375,-6.5 3.984375,-4.828125 3.984375,-11.796875 0,-10.609375 -6.46875,-16.28125 -6.46875,-5.65625 -18.53125,-5.65625 -12.046875,0 -18.53125,5.65625 -6.46875,5.671875 -6.46875,16.28125 0,6.96875 4,11.796875 4.015625,4.84375 11.140625,6.5 z M 18.3125,54.390625 q 0,-5.65625 3.53125,-8.828125 3.546875,-3.171875 9.9375,-3.171875 6.359375,0 9.9375,3.171875 3.59375,3.171875 3.59375,8.828125 0,5.671875 -3.59375,8.84375 -3.578125,3.171875 -9.9375,3.171875 -6.390625,0 -9.9375,-3.171875 Q 18.3125,60.0625 18.3125,54.390625 Z"
               id="DejaVuSans-56" />
            <path
               d="m 33.015625,40.375 q -6.640625,0 -10.53125,-4.546875 -3.875,-4.53125 -3.875,-12.4375 0,-7.859375 3.875,-12.4375 3.890625,-4.5625 10.53125,-4.5625 6.640625,0 10.515625,4.5625 3.875,4.578125 3.875,12.4375 0,7.90625 -3.875,12.4375 Q 39.65625,40.375 33.015625,40.375 Z M 52.59375,71.296875 V 62.3125 q -3.71875,1.75 -7.5,2.671875 -3.78125,0.9375 -7.5,0.9375 -9.765625,0 -14.921875,-6.59375 -5.140625,-6.59375 -5.875,-19.921875 2.875,4.25 7.21875,6.515625 4.359375,2.265625 9.578125,2.265625 10.984375,0 17.359375,-6.671875 6.375,-6.65625 6.375,-18.125 0,-11.234375 -6.640625,-18.03125 -6.640625,-6.78125 -17.671875,-6.78125 -12.65625,0 -19.34375,9.6875 -6.6875,9.703125 -6.6875,28.109375 0,17.28125 8.203125,27.5625 8.203125,10.28125 22.015625,10.28125 3.71875,0 7.5,-0.734375 3.78125,-0.734375 7.890625,-2.1875 z"
               id="DejaVuSans-54" />
          </defs>
          <use
             transform="translate(0,0.78125)"
             xlink:href="#DejaVuSans-Oblique-82"
             id="use369"
             x="0"
             y="0"
             width="100%"
             height="100%" />
          <use
             transform="translate(69.482422,0.78125)"
             xlink:href="#DejaVuSans-Oblique-77"
             id="use371"
             x="0"
             y="0"
             width="100%"
             height="100%" />
          <use
             transform="translate(155.76172,0.78125)"
             xlink:href="#DejaVuSans-Oblique-83"
             id="use373"
             x="0"
             y="0"
             width="100%"
             height="100%" />
          <use
             transform="translate(219.23828,0.78125)"
             xlink:href="#DejaVuSans-Oblique-69"
             id="use375"
             x="0"
             y="0"
             width="100%"
             height="100%" />
          <use
             transform="translate(301.9043,0.78125)"
             xlink:href="#DejaVuSans-61"
             id="use377"
             x="0"
             y="0"
             width="100%"
             height="100%" />
          <use
             transform="translate(405.17578,0.78125)"
             xlink:href="#DejaVuSans-49"
             id="use379"
             x="0"
             y="0"
             width="100%"
             height="100%" />
          <use
             transform="translate(468.79883,0.78125)"
             xlink:href="#DejaVuSans-55"
             id="use381"
             x="0"
             y="0"
             width="100%"
             height="100%" />
          <use
             transform="translate(532.42187,0.78125)"
             xlink:href="#DejaVuSans-46"
             id="use383"
             x="0"
             y="0"
             width="100%"
             height="100%" />
          <use
             transform="translate(561.58398,0.78125)"
             xlink:href="#DejaVuSans-56"
             id="use385"
             x="0"
             y="0"
             width="100%"
             height="100%" />
          <use
             transform="translate(625.20703,0.78125)"
             xlink:href="#DejaVuSans-54"
             id="use387"
             x="0"
             y="0"
             width="100%"
             height="100%" />
        </g>
      </g>
      <g
         id="legend_1">
        <g
           id="patch_8">
          <path
             d="m 721.89758,155.86625 h 250.24 q 6.4,0 6.4,-6.4 v -84.8 q 0,-6.4 -6.4,-6.4 h -250.24 q -6.4,0 -6.4,6.4 v 84.8 q 0,6.4 6.4,6.4 z"
             style="opacity:0.8;fill:#ffffff;stroke:#cccccc;stroke-linejoin:miter"
             id="path523" />
        </g>
        <g
           id="line2d_18">
          <path
             d="m 728.29758,82.49125 h 64"
             style="fill:none;stroke:#1f77b4;stroke-width:1.5;stroke-linecap:square"
             id="path526" />
        </g>
        <g
           id="line2d_19" />
        <g
           id="line2d_20">
          <path
             d="m 728.29758,126.49125 h 64"
             style="fill:none;stroke:#ff7f0e;stroke-width:1.5;stroke-dasharray:5.55, 2.4;stroke-dashoffset:0"
             id="path548" />
        </g>
        <g
           id="line2d_21" />
      </g>
    </g>
  </g>
  <defs
     id="defs584">
    <clipPath
       id="pab63ee0ae2">
      <rect
         height="746.99878"
         width="900.3457"
         x="94.191872"
         y="42.266251"
         id="rect581" />
    </clipPath>
  </defs>
  <text
     xml:space="preserve"
     style="font-size:30px;line-height:1.25;font-family:'DejaVu Sans';-inkscape-font-specification:'DejaVu Sans';word-spacing:0px;stroke-width:0.75"
     x="-431.89279"
     y="14.126886"
     id="text10815"
     transform="rotate(-92.062577)"><tspan
       sodipodi:role="line"
       id="tspan10813"
       x="-431.89279"
       y="14.126886"
       style="stroke-width:0.75">SoC(%)</tspan></text>
  <text
     xml:space="preserve"
     style="font-size:30px;line-height:1.25;font-family:'DejaVu Sans';-inkscape-font-specification:'DejaVu Sans';word-spacing:0px;stroke-width:0.75"
     x="400.65784"
     y="805.41248"
     id="text10827"><tspan
       sodipodi:role="line"
       id="tspan10825"
       x="400.65784"
       y="805.41248"
       style="stroke-width:0.75">Time Slice (min)</tspan></text>
  <text
     xml:space="preserve"
     style="font-size:30px;line-height:1.25;font-family:'DejaVu Sans';-inkscape-font-specification:'DejaVu Sans';word-spacing:0px;stroke-width:0.75"
     x="797.52374"
     y="53.731632"
     id="text10877"><tspan
       sodipodi:role="line"
       id="tspan10875"
       x="797.52374"
       y="53.731632"
       style="stroke-width:0.75">Actual</tspan></text>
  <text
     xml:space="preserve"
     style="font-size:30px;line-height:1.25;font-family:'DejaVu Sans';-inkscape-font-specification:'DejaVu Sans';word-spacing:0px;stroke-width:0.75"
     x="795.69861"
     y="98.226471"
     id="text10883"><tspan
       sodipodi:role="line"
       id="tspan10881"
       x="795.69861"
       y="98.226471"
       style="stroke-width:0.75">Prediction</tspan></text>
</svg>
