<?xml version="1.0" encoding="UTF-8" standalone="no"?>
<svg
   xmlns:dc="http://purl.org/dc/elements/1.1/"
   xmlns:cc="http://creativecommons.org/ns#"
   xmlns:rdf="http://www.w3.org/1999/02/22-rdf-syntax-ns#"
   xmlns:svg="http://www.w3.org/2000/svg"
   xmlns="http://www.w3.org/2000/svg"
   xmlns:xlink="http://www.w3.org/1999/xlink"
   xmlns:sodipodi="http://sodipodi.sourceforge.net/DTD/sodipodi-0.dtd"
   xmlns:inkscape="http://www.inkscape.org/namespaces/inkscape"
   width="1008pt"
   height="864pt"
   viewBox="0 0 1008 864"
   version="1.1"
   id="svg2784"
   sodipodi:docname="M6-history-US06-mae.svg"
   inkscape:version="1.0.2 (e86c870879, 2021-01-15)">
  <sodipodi:namedview
     pagecolor="#ffffff"
     bordercolor="#666666"
     borderopacity="1"
     objecttolerance="10"
     gridtolerance="10"
     guidetolerance="10"
     inkscape:pageopacity="0"
     inkscape:pageshadow="2"
     inkscape:window-width="1480"
     inkscape:window-height="974"
     id="namedview2786"
     showgrid="false"
     inkscape:zoom="0.77170139"
     inkscape:cx="672"
     inkscape:cy="368.66592"
     inkscape:window-x="4"
     inkscape:window-y="24"
     inkscape:window-maximized="0"
     inkscape:current-layer="axes_1" />
  <metadata
     id="metadata2189">
    <rdf:RDF>
      <cc:Work>
        <dc:type
           rdf:resource="http://purl.org/dc/dcmitype/StillImage" />
        <dc:date>2022-12-05T02:17:24.924143</dc:date>
        <dc:format>image/svg+xml</dc:format>
        <dc:creator>
          <cc:Agent>
            <dc:title>Matplotlib v3.5.1, https://matplotlib.org/</dc:title>
          </cc:Agent>
        </dc:creator>
      </cc:Work>
    </rdf:RDF>
  </metadata>
  <defs
     id="defs2193">
    <style
       type="text/css"
       id="style2191">*{stroke-linejoin: round; stroke-linecap: butt}</style>
  </defs>
  <g
     id="figure_1">
    <g
       id="patch_1">
      <path
         d="M 0 864  L 1008 864  L 1008 0  L 0 0  L 0 864  z "
         style="fill: none"
         id="path2195" />
    </g>
    <g
       id="axes_1">
      <g
         id="patch_2">
        <path
           d="M 70.46 784.12  L 997.2 784.12  L 997.2 91.2  L 70.46 91.2  z "
           style="fill: #ffffff"
           id="path2198" />
      </g>
      <g
         id="matplotlib.axis_1">
        <g
           id="xtick_1">
          <g
             id="line2d_1">
            <defs
               id="defs2202">
              <path
                 id="mb2169fbafb"
                 d="M 0 0  L 0 3.5  "
                 style="stroke: #000000; stroke-width: 0.8" />
            </defs>
            <g
               id="g2206">
              <use
                 xlink:href="#mb2169fbafb"
                 x="112.584545"
                 y="784.12"
                 style="stroke: #000000; stroke-width: 0.8"
                 id="use2204" />
            </g>
          </g>
          <g
             id="text_1">
            <!-- 0 -->
            <g
               transform="translate(103.677045 812.395625)scale(0.28 -0.28)"
               id="g2214">
              <defs
                 id="defs2210">
                <path
                   id="DejaVuSans-30"
                   d="M 2034 4250  Q 1547 4250 1301 3770  Q 1056 3291 1056 2328  Q 1056 1369 1301 889  Q 1547 409 2034 409  Q 2525 409 2770 889  Q 3016 1369 3016 2328  Q 3016 3291 2770 3770  Q 2525 4250 2034 4250  z M 2034 4750  Q 2819 4750 3233 4129  Q 3647 3509 3647 2328  Q 3647 1150 3233 529  Q 2819 -91 2034 -91  Q 1250 -91 836 529  Q 422 1150 422 2328  Q 422 3509 836 4129  Q 1250 4750 2034 4750  z "
                   transform="scale(0.015625)" />
              </defs>
              <use
                 xlink:href="#DejaVuSans-30"
                 id="use2212" />
            </g>
          </g>
        </g>
        <g
           id="xtick_2">
          <g
             id="line2d_2">
            <g
               id="g2220">
              <use
                 xlink:href="#mb2169fbafb"
                 x="232.94039"
                 y="784.12"
                 style="stroke: #000000; stroke-width: 0.8"
                 id="use2218" />
            </g>
          </g>
          <g
             id="text_2">
            <!-- 2 -->
            <g
               transform="translate(224.03289 812.395625)scale(0.28 -0.28)"
               id="g2228">
              <defs
                 id="defs2224">
                <path
                   id="DejaVuSans-32"
                   d="M 1228 531  L 3431 531  L 3431 0  L 469 0  L 469 531  Q 828 903 1448 1529  Q 2069 2156 2228 2338  Q 2531 2678 2651 2914  Q 2772 3150 2772 3378  Q 2772 3750 2511 3984  Q 2250 4219 1831 4219  Q 1534 4219 1204 4116  Q 875 4013 500 3803  L 500 4441  Q 881 4594 1212 4672  Q 1544 4750 1819 4750  Q 2544 4750 2975 4387  Q 3406 4025 3406 3419  Q 3406 3131 3298 2873  Q 3191 2616 2906 2266  Q 2828 2175 2409 1742  Q 1991 1309 1228 531  z "
                   transform="scale(0.015625)" />
              </defs>
              <use
                 xlink:href="#DejaVuSans-32"
                 id="use2226" />
            </g>
          </g>
        </g>
        <g
           id="xtick_3">
          <g
             id="line2d_3">
            <g
               id="g2234">
              <use
                 xlink:href="#mb2169fbafb"
                 x="353.296234"
                 y="784.12"
                 style="stroke: #000000; stroke-width: 0.8"
                 id="use2232" />
            </g>
          </g>
          <g
             id="text_3">
            <!-- 4 -->
            <g
               transform="translate(344.388734 812.395625)scale(0.28 -0.28)"
               id="g2242">
              <defs
                 id="defs2238">
                <path
                   id="DejaVuSans-34"
                   d="M 2419 4116  L 825 1625  L 2419 1625  L 2419 4116  z M 2253 4666  L 3047 4666  L 3047 1625  L 3713 1625  L 3713 1100  L 3047 1100  L 3047 0  L 2419 0  L 2419 1100  L 313 1100  L 313 1709  L 2253 4666  z "
                   transform="scale(0.015625)" />
              </defs>
              <use
                 xlink:href="#DejaVuSans-34"
                 id="use2240" />
            </g>
          </g>
        </g>
        <g
           id="xtick_4">
          <g
             id="line2d_4">
            <g
               id="g2248">
              <use
                 xlink:href="#mb2169fbafb"
                 x="473.652078"
                 y="784.12"
                 style="stroke: #000000; stroke-width: 0.8"
                 id="use2246" />
            </g>
          </g>
          <g
             id="text_4">
            <!-- 6 -->
            <g
               transform="translate(464.744578 812.395625)scale(0.28 -0.28)"
               id="g2256">
              <defs
                 id="defs2252">
                <path
                   id="DejaVuSans-36"
                   d="M 2113 2584  Q 1688 2584 1439 2293  Q 1191 2003 1191 1497  Q 1191 994 1439 701  Q 1688 409 2113 409  Q 2538 409 2786 701  Q 3034 994 3034 1497  Q 3034 2003 2786 2293  Q 2538 2584 2113 2584  z M 3366 4563  L 3366 3988  Q 3128 4100 2886 4159  Q 2644 4219 2406 4219  Q 1781 4219 1451 3797  Q 1122 3375 1075 2522  Q 1259 2794 1537 2939  Q 1816 3084 2150 3084  Q 2853 3084 3261 2657  Q 3669 2231 3669 1497  Q 3669 778 3244 343  Q 2819 -91 2113 -91  Q 1303 -91 875 529  Q 447 1150 447 2328  Q 447 3434 972 4092  Q 1497 4750 2381 4750  Q 2619 4750 2861 4703  Q 3103 4656 3366 4563  z "
                   transform="scale(0.015625)" />
              </defs>
              <use
                 xlink:href="#DejaVuSans-36"
                 id="use2254" />
            </g>
          </g>
        </g>
        <g
           id="xtick_5">
          <g
             id="line2d_5">
            <g
               id="g2262">
              <use
                 xlink:href="#mb2169fbafb"
                 x="594.007922"
                 y="784.12"
                 style="stroke: #000000; stroke-width: 0.8"
                 id="use2260" />
            </g>
          </g>
          <g
             id="text_5">
            <!-- 8 -->
            <g
               transform="translate(585.100422 812.395625)scale(0.28 -0.28)"
               id="g2270">
              <defs
                 id="defs2266">
                <path
                   id="DejaVuSans-38"
                   d="M 2034 2216  Q 1584 2216 1326 1975  Q 1069 1734 1069 1313  Q 1069 891 1326 650  Q 1584 409 2034 409  Q 2484 409 2743 651  Q 3003 894 3003 1313  Q 3003 1734 2745 1975  Q 2488 2216 2034 2216  z M 1403 2484  Q 997 2584 770 2862  Q 544 3141 544 3541  Q 544 4100 942 4425  Q 1341 4750 2034 4750  Q 2731 4750 3128 4425  Q 3525 4100 3525 3541  Q 3525 3141 3298 2862  Q 3072 2584 2669 2484  Q 3125 2378 3379 2068  Q 3634 1759 3634 1313  Q 3634 634 3220 271  Q 2806 -91 2034 -91  Q 1263 -91 848 271  Q 434 634 434 1313  Q 434 1759 690 2068  Q 947 2378 1403 2484  z M 1172 3481  Q 1172 3119 1398 2916  Q 1625 2713 2034 2713  Q 2441 2713 2670 2916  Q 2900 3119 2900 3481  Q 2900 3844 2670 4047  Q 2441 4250 2034 4250  Q 1625 4250 1398 4047  Q 1172 3844 1172 3481  z "
                   transform="scale(0.015625)" />
              </defs>
              <use
                 xlink:href="#DejaVuSans-38"
                 id="use2268" />
            </g>
          </g>
        </g>
        <g
           id="xtick_6">
          <g
             id="line2d_6">
            <g
               id="g2276">
              <use
                 xlink:href="#mb2169fbafb"
                 x="714.363766"
                 y="784.12"
                 style="stroke: #000000; stroke-width: 0.8"
                 id="use2274" />
            </g>
          </g>
          <g
             id="text_6">
            <!-- 10 -->
            <g
               transform="translate(696.548766 812.395625)scale(0.28 -0.28)"
               id="g2286">
              <defs
                 id="defs2280">
                <path
                   id="DejaVuSans-31"
                   d="M 794 531  L 1825 531  L 1825 4091  L 703 3866  L 703 4441  L 1819 4666  L 2450 4666  L 2450 531  L 3481 531  L 3481 0  L 794 0  L 794 531  z "
                   transform="scale(0.015625)" />
              </defs>
              <use
                 xlink:href="#DejaVuSans-31"
                 id="use2282" />
              <use
                 xlink:href="#DejaVuSans-30"
                 x="63.623047"
                 id="use2284" />
            </g>
          </g>
        </g>
        <g
           id="xtick_7">
          <g
             id="line2d_7">
            <g
               id="g2292">
              <use
                 xlink:href="#mb2169fbafb"
                 x="834.71961"
                 y="784.12"
                 style="stroke: #000000; stroke-width: 0.8"
                 id="use2290" />
            </g>
          </g>
          <g
             id="text_7">
            <!-- 12 -->
            <g
               transform="translate(816.90461 812.395625)scale(0.28 -0.28)"
               id="g2299">
              <use
                 xlink:href="#DejaVuSans-31"
                 id="use2295" />
              <use
                 xlink:href="#DejaVuSans-32"
                 x="63.623047"
                 id="use2297" />
            </g>
          </g>
        </g>
        <g
           id="xtick_8">
          <g
             id="line2d_8">
            <g
               id="g2305">
              <use
                 xlink:href="#mb2169fbafb"
                 x="955.075455"
                 y="784.12"
                 style="stroke: #000000; stroke-width: 0.8"
                 id="use2303" />
            </g>
          </g>
          <g
             id="text_8">
            <!-- 14 -->
            <g
               transform="translate(937.260455 812.395625)scale(0.28 -0.28)"
               id="g2312">
              <use
                 xlink:href="#DejaVuSans-31"
                 id="use2308" />
              <use
                 xlink:href="#DejaVuSans-34"
                 x="63.623047"
                 id="use2310" />
            </g>
          </g>
        </g>
        <g
           id="text_9">
          <!-- Epochs -->
          <g
             transform="translate(476.5 846.53375)scale(0.32 -0.32)"
             id="g2336">
            <defs
               id="defs2322">
              <path
                 id="DejaVuSans-45"
                 d="M 628 4666  L 3578 4666  L 3578 4134  L 1259 4134  L 1259 2753  L 3481 2753  L 3481 2222  L 1259 2222  L 1259 531  L 3634 531  L 3634 0  L 628 0  L 628 4666  z "
                 transform="scale(0.015625)" />
              <path
                 id="DejaVuSans-70"
                 d="M 1159 525  L 1159 -1331  L 581 -1331  L 581 3500  L 1159 3500  L 1159 2969  Q 1341 3281 1617 3432  Q 1894 3584 2278 3584  Q 2916 3584 3314 3078  Q 3713 2572 3713 1747  Q 3713 922 3314 415  Q 2916 -91 2278 -91  Q 1894 -91 1617 61  Q 1341 213 1159 525  z M 3116 1747  Q 3116 2381 2855 2742  Q 2594 3103 2138 3103  Q 1681 3103 1420 2742  Q 1159 2381 1159 1747  Q 1159 1113 1420 752  Q 1681 391 2138 391  Q 2594 391 2855 752  Q 3116 1113 3116 1747  z "
                 transform="scale(0.015625)" />
              <path
                 id="DejaVuSans-6f"
                 d="M 1959 3097  Q 1497 3097 1228 2736  Q 959 2375 959 1747  Q 959 1119 1226 758  Q 1494 397 1959 397  Q 2419 397 2687 759  Q 2956 1122 2956 1747  Q 2956 2369 2687 2733  Q 2419 3097 1959 3097  z M 1959 3584  Q 2709 3584 3137 3096  Q 3566 2609 3566 1747  Q 3566 888 3137 398  Q 2709 -91 1959 -91  Q 1206 -91 779 398  Q 353 888 353 1747  Q 353 2609 779 3096  Q 1206 3584 1959 3584  z "
                 transform="scale(0.015625)" />
              <path
                 id="DejaVuSans-63"
                 d="M 3122 3366  L 3122 2828  Q 2878 2963 2633 3030  Q 2388 3097 2138 3097  Q 1578 3097 1268 2742  Q 959 2388 959 1747  Q 959 1106 1268 751  Q 1578 397 2138 397  Q 2388 397 2633 464  Q 2878 531 3122 666  L 3122 134  Q 2881 22 2623 -34  Q 2366 -91 2075 -91  Q 1284 -91 818 406  Q 353 903 353 1747  Q 353 2603 823 3093  Q 1294 3584 2113 3584  Q 2378 3584 2631 3529  Q 2884 3475 3122 3366  z "
                 transform="scale(0.015625)" />
              <path
                 id="DejaVuSans-68"
                 d="M 3513 2113  L 3513 0  L 2938 0  L 2938 2094  Q 2938 2591 2744 2837  Q 2550 3084 2163 3084  Q 1697 3084 1428 2787  Q 1159 2491 1159 1978  L 1159 0  L 581 0  L 581 4863  L 1159 4863  L 1159 2956  Q 1366 3272 1645 3428  Q 1925 3584 2291 3584  Q 2894 3584 3203 3211  Q 3513 2838 3513 2113  z "
                 transform="scale(0.015625)" />
              <path
                 id="DejaVuSans-73"
                 d="M 2834 3397  L 2834 2853  Q 2591 2978 2328 3040  Q 2066 3103 1784 3103  Q 1356 3103 1142 2972  Q 928 2841 928 2578  Q 928 2378 1081 2264  Q 1234 2150 1697 2047  L 1894 2003  Q 2506 1872 2764 1633  Q 3022 1394 3022 966  Q 3022 478 2636 193  Q 2250 -91 1575 -91  Q 1294 -91 989 -36  Q 684 19 347 128  L 347 722  Q 666 556 975 473  Q 1284 391 1588 391  Q 1994 391 2212 530  Q 2431 669 2431 922  Q 2431 1156 2273 1281  Q 2116 1406 1581 1522  L 1381 1569  Q 847 1681 609 1914  Q 372 2147 372 2553  Q 372 3047 722 3315  Q 1072 3584 1716 3584  Q 2034 3584 2315 3537  Q 2597 3491 2834 3397  z "
                 transform="scale(0.015625)" />
            </defs>
            <use
               xlink:href="#DejaVuSans-45"
               id="use2324" />
            <use
               xlink:href="#DejaVuSans-70"
               x="63.183594"
               id="use2326" />
            <use
               xlink:href="#DejaVuSans-6f"
               x="126.660156"
               id="use2328" />
            <use
               xlink:href="#DejaVuSans-63"
               x="187.841797"
               id="use2330" />
            <use
               xlink:href="#DejaVuSans-68"
               x="242.822266"
               id="use2332" />
            <use
               xlink:href="#DejaVuSans-73"
               x="306.201172"
               id="use2334" />
          </g>
        </g>
      </g>
      <g
         id="matplotlib.axis_2">
        <g
           id="ytick_1">
          <g
             id="line2d_9">
            <defs
               id="defs2341">
              <path
                 id="mb3a156bbfe"
                 d="M 0 0  L -3.5 0  "
                 style="stroke: #000000; stroke-width: 0.8" />
            </defs>
            <g
               id="g2345">
              <use
                 xlink:href="#mb3a156bbfe"
                 x="70.46"
                 y="772.943871"
                 style="stroke: #000000; stroke-width: 0.8"
                 id="use2343" />
            </g>
          </g>
          <g
             id="text_10">
            <!-- 0 -->
            <g
               transform="translate(45.645 783.581683)scale(0.28 -0.28)"
               id="g2350">
              <use
                 xlink:href="#DejaVuSans-30"
                 id="use2348" />
            </g>
          </g>
        </g>
        <g
           id="ytick_2">
          <g
             id="line2d_10">
            <g
               id="g2356">
              <use
                 xlink:href="#mb3a156bbfe"
                 x="70.46"
                 y="661.182581"
                 style="stroke: #000000; stroke-width: 0.8"
                 id="use2354" />
            </g>
          </g>
          <g
             id="text_11">
            <!-- 1 -->
            <g
               transform="translate(45.645 671.820393)scale(0.28 -0.28)"
               id="g2361">
              <use
                 xlink:href="#DejaVuSans-31"
                 id="use2359" />
            </g>
          </g>
        </g>
        <g
           id="ytick_3">
          <g
             id="line2d_11">
            <g
               id="g2367">
              <use
                 xlink:href="#mb3a156bbfe"
                 x="70.46"
                 y="549.42129"
                 style="stroke: #000000; stroke-width: 0.8"
                 id="use2365" />
            </g>
          </g>
          <g
             id="text_12">
            <!-- 2 -->
            <g
               transform="translate(45.645 560.059103)scale(0.28 -0.28)"
               id="g2372">
              <use
                 xlink:href="#DejaVuSans-32"
                 id="use2370" />
            </g>
          </g>
        </g>
        <g
           id="ytick_4">
          <g
             id="line2d_12">
            <g
               id="g2378">
              <use
                 xlink:href="#mb3a156bbfe"
                 x="70.46"
                 y="437.66"
                 style="stroke: #000000; stroke-width: 0.8"
                 id="use2376" />
            </g>
          </g>
          <g
             id="text_13">
            <!-- 3 -->
            <g
               transform="translate(45.645 448.297812)scale(0.28 -0.28)"
               id="g2386">
              <defs
                 id="defs2382">
                <path
                   id="DejaVuSans-33"
                   d="M 2597 2516  Q 3050 2419 3304 2112  Q 3559 1806 3559 1356  Q 3559 666 3084 287  Q 2609 -91 1734 -91  Q 1441 -91 1130 -33  Q 819 25 488 141  L 488 750  Q 750 597 1062 519  Q 1375 441 1716 441  Q 2309 441 2620 675  Q 2931 909 2931 1356  Q 2931 1769 2642 2001  Q 2353 2234 1838 2234  L 1294 2234  L 1294 2753  L 1863 2753  Q 2328 2753 2575 2939  Q 2822 3125 2822 3475  Q 2822 3834 2567 4026  Q 2313 4219 1838 4219  Q 1578 4219 1281 4162  Q 984 4106 628 3988  L 628 4550  Q 988 4650 1302 4700  Q 1616 4750 1894 4750  Q 2613 4750 3031 4423  Q 3450 4097 3450 3541  Q 3450 3153 3228 2886  Q 3006 2619 2597 2516  z "
                   transform="scale(0.015625)" />
              </defs>
              <use
                 xlink:href="#DejaVuSans-33"
                 id="use2384" />
            </g>
          </g>
        </g>
        <g
           id="ytick_5">
          <g
             id="line2d_13">
            <g
               id="g2392">
              <use
                 xlink:href="#mb3a156bbfe"
                 x="70.46"
                 y="325.89871"
                 style="stroke: #000000; stroke-width: 0.8"
                 id="use2390" />
            </g>
          </g>
          <g
             id="text_14">
            <!-- 4 -->
            <g
               transform="translate(45.645 336.536522)scale(0.28 -0.28)"
               id="g2397">
              <use
                 xlink:href="#DejaVuSans-34"
                 id="use2395" />
            </g>
          </g>
        </g>
        <g
           id="ytick_6">
          <g
             id="line2d_14">
            <g
               id="g2403">
              <use
                 xlink:href="#mb3a156bbfe"
                 x="70.46"
                 y="214.137419"
                 style="stroke: #000000; stroke-width: 0.8"
                 id="use2401" />
            </g>
          </g>
          <g
             id="text_15">
            <!-- 5 -->
            <g
               transform="translate(45.645 224.775232)scale(0.28 -0.28)"
               id="g2411">
              <defs
                 id="defs2407">
                <path
                   id="DejaVuSans-35"
                   d="M 691 4666  L 3169 4666  L 3169 4134  L 1269 4134  L 1269 2991  Q 1406 3038 1543 3061  Q 1681 3084 1819 3084  Q 2600 3084 3056 2656  Q 3513 2228 3513 1497  Q 3513 744 3044 326  Q 2575 -91 1722 -91  Q 1428 -91 1123 -41  Q 819 9 494 109  L 494 744  Q 775 591 1075 516  Q 1375 441 1709 441  Q 2250 441 2565 725  Q 2881 1009 2881 1497  Q 2881 1984 2565 2268  Q 2250 2553 1709 2553  Q 1456 2553 1204 2497  Q 953 2441 691 2322  L 691 4666  z "
                   transform="scale(0.015625)" />
              </defs>
              <use
                 xlink:href="#DejaVuSans-35"
                 id="use2409" />
            </g>
          </g>
        </g>
        <g
           id="ytick_7">
          <g
             id="line2d_15">
            <g
               id="g2417">
              <use
                 xlink:href="#mb3a156bbfe"
                 x="70.46"
                 y="102.376129"
                 style="stroke: #000000; stroke-width: 0.8"
                 id="use2415" />
            </g>
          </g>
          <g
             id="text_16">
            <!-- 6 -->
            <g
               transform="translate(45.645 113.013942)scale(0.28 -0.28)"
               id="g2422">
              <use
                 xlink:href="#DejaVuSans-36"
                 id="use2420" />
            </g>
          </g>
        </g>
        <g
           id="text_17">
          <!-- Error (%) -->
          <g
             transform="translate(34.99 509.425)rotate(-90)scale(0.32 -0.32)"
             id="g2451">
            <defs
               id="defs2431">
              <path
                 id="DejaVuSans-72"
                 d="M 2631 2963  Q 2534 3019 2420 3045  Q 2306 3072 2169 3072  Q 1681 3072 1420 2755  Q 1159 2438 1159 1844  L 1159 0  L 581 0  L 581 3500  L 1159 3500  L 1159 2956  Q 1341 3275 1631 3429  Q 1922 3584 2338 3584  Q 2397 3584 2469 3576  Q 2541 3569 2628 3553  L 2631 2963  z "
                 transform="scale(0.015625)" />
              <path
                 id="DejaVuSans-20"
                 transform="scale(0.015625)" />
              <path
                 id="DejaVuSans-28"
                 d="M 1984 4856  Q 1566 4138 1362 3434  Q 1159 2731 1159 2009  Q 1159 1288 1364 580  Q 1569 -128 1984 -844  L 1484 -844  Q 1016 -109 783 600  Q 550 1309 550 2009  Q 550 2706 781 3412  Q 1013 4119 1484 4856  L 1984 4856  z "
                 transform="scale(0.015625)" />
              <path
                 id="DejaVuSans-25"
                 d="M 4653 2053  Q 4381 2053 4226 1822  Q 4072 1591 4072 1178  Q 4072 772 4226 539  Q 4381 306 4653 306  Q 4919 306 5073 539  Q 5228 772 5228 1178  Q 5228 1588 5073 1820  Q 4919 2053 4653 2053  z M 4653 2450  Q 5147 2450 5437 2106  Q 5728 1763 5728 1178  Q 5728 594 5436 251  Q 5144 -91 4653 -91  Q 4153 -91 3862 251  Q 3572 594 3572 1178  Q 3572 1766 3864 2108  Q 4156 2450 4653 2450  z M 1428 4353  Q 1159 4353 1004 4120  Q 850 3888 850 3481  Q 850 3069 1003 2837  Q 1156 2606 1428 2606  Q 1700 2606 1854 2837  Q 2009 3069 2009 3481  Q 2009 3884 1853 4118  Q 1697 4353 1428 4353  z M 4250 4750  L 4750 4750  L 1831 -91  L 1331 -91  L 4250 4750  z M 1428 4750  Q 1922 4750 2215 4408  Q 2509 4066 2509 3481  Q 2509 2891 2217 2550  Q 1925 2209 1428 2209  Q 931 2209 642 2551  Q 353 2894 353 3481  Q 353 4063 643 4406  Q 934 4750 1428 4750  z "
                 transform="scale(0.015625)" />
              <path
                 id="DejaVuSans-29"
                 d="M 513 4856  L 1013 4856  Q 1481 4119 1714 3412  Q 1947 2706 1947 2009  Q 1947 1309 1714 600  Q 1481 -109 1013 -844  L 513 -844  Q 928 -128 1133 580  Q 1338 1288 1338 2009  Q 1338 2731 1133 3434  Q 928 4138 513 4856  z "
                 transform="scale(0.015625)" />
            </defs>
            <use
               xlink:href="#DejaVuSans-45"
               id="use2433" />
            <use
               xlink:href="#DejaVuSans-72"
               x="63.183594"
               id="use2435" />
            <use
               xlink:href="#DejaVuSans-72"
               x="102.546875"
               id="use2437" />
            <use
               xlink:href="#DejaVuSans-6f"
               x="141.410156"
               id="use2439" />
            <use
               xlink:href="#DejaVuSans-72"
               x="202.591797"
               id="use2441" />
            <use
               xlink:href="#DejaVuSans-20"
               x="243.705078"
               id="use2443" />
            <use
               xlink:href="#DejaVuSans-28"
               x="275.492188"
               id="use2445" />
            <use
               xlink:href="#DejaVuSans-25"
               x="314.505859"
               id="use2447" />
            <use
               xlink:href="#DejaVuSans-29"
               x="409.525391"
               id="use2449" />
          </g>
        </g>
      </g>
      <g
         id="line2d_16">
        <path
           d="M 112.584545 251.0125  L 172.762468 708.525334  L 232.94039 740.462743  L 293.118312 744.817167  L 353.296234 750.327659  L 413.474156 755.400399  L 473.652078 758.622381  L 533.83 760.256539  L 594.007922 761.70045  L 654.185844 762.257892  L 714.363766 762.186357  L 774.541688 762.435816  L 834.71961 767.358541  L 894.897532 767.577847  L 955.075455 768.030963  "
           clip-path="url(#p504f9b98a8)"
           style="fill: none; stroke: #0000ff; stroke-width: 1.5; stroke-linecap: square"
           id="path2455" />
        <defs
           id="defs2458">
          <path
             id="m513a4b4dc4"
             d="M 0 3  C 0.795609 3 1.55874 2.683901 2.12132 2.12132  C 2.683901 1.55874 3 0.795609 3 0  C 3 -0.795609 2.683901 -1.55874 2.12132 -2.12132  C 1.55874 -2.683901 0.795609 -3 0 -3  C -0.795609 -3 -1.55874 -2.683901 -2.12132 -2.12132  C -2.683901 -1.55874 -3 -0.795609 -3 0  C -3 0.795609 -2.683901 1.55874 -2.12132 2.12132  C -1.55874 2.683901 -0.795609 3 0 3  z "
             style="stroke: #0000ff" />
        </defs>
        <g
           clip-path="url(#p504f9b98a8)"
           id="g2490">
          <use
             xlink:href="#m513a4b4dc4"
             x="112.584545"
             y="251.0125"
             style="fill: #0000ff; stroke: #0000ff"
             id="use2460" />
          <use
             xlink:href="#m513a4b4dc4"
             x="172.762468"
             y="708.525334"
             style="fill: #0000ff; stroke: #0000ff"
             id="use2462" />
          <use
             xlink:href="#m513a4b4dc4"
             x="232.94039"
             y="740.462743"
             style="fill: #0000ff; stroke: #0000ff"
             id="use2464" />
          <use
             xlink:href="#m513a4b4dc4"
             x="293.118312"
             y="744.817167"
             style="fill: #0000ff; stroke: #0000ff"
             id="use2466" />
          <use
             xlink:href="#m513a4b4dc4"
             x="353.296234"
             y="750.327659"
             style="fill: #0000ff; stroke: #0000ff"
             id="use2468" />
          <use
             xlink:href="#m513a4b4dc4"
             x="413.474156"
             y="755.400399"
             style="fill: #0000ff; stroke: #0000ff"
             id="use2470" />
          <use
             xlink:href="#m513a4b4dc4"
             x="473.652078"
             y="758.622381"
             style="fill: #0000ff; stroke: #0000ff"
             id="use2472" />
          <use
             xlink:href="#m513a4b4dc4"
             x="533.83"
             y="760.256539"
             style="fill: #0000ff; stroke: #0000ff"
             id="use2474" />
          <use
             xlink:href="#m513a4b4dc4"
             x="594.007922"
             y="761.70045"
             style="fill: #0000ff; stroke: #0000ff"
             id="use2476" />
          <use
             xlink:href="#m513a4b4dc4"
             x="654.185844"
             y="762.257892"
             style="fill: #0000ff; stroke: #0000ff"
             id="use2478" />
          <use
             xlink:href="#m513a4b4dc4"
             x="714.363766"
             y="762.186357"
             style="fill: #0000ff; stroke: #0000ff"
             id="use2480" />
          <use
             xlink:href="#m513a4b4dc4"
             x="774.541688"
             y="762.435816"
             style="fill: #0000ff; stroke: #0000ff"
             id="use2482" />
          <use
             xlink:href="#m513a4b4dc4"
             x="834.71961"
             y="767.358541"
             style="fill: #0000ff; stroke: #0000ff"
             id="use2484" />
          <use
             xlink:href="#m513a4b4dc4"
             x="894.897532"
             y="767.577847"
             style="fill: #0000ff; stroke: #0000ff"
             id="use2486" />
          <use
             xlink:href="#m513a4b4dc4"
             x="955.075455"
             y="768.030963"
             style="fill: #0000ff; stroke: #0000ff"
             id="use2488" />
        </g>
      </g>
      <g
         id="line2d_17">
        <path
           d="M 112.584545 322.88665  L 172.762468 574.057143  L 232.94039 610.776589  L 293.118312 620.776144  L 353.296234 644.757889  L 413.474156 640.793265  L 473.652078 654.456166  L 533.83 648.397853  L 594.007922 654.826325  L 654.185844 649.276719  L 714.363766 650.655662  L 774.541688 663.833214  L 834.71961 676.611176  L 894.897532 676.407621  L 955.075455 679.35912  "
           clip-path="url(#p504f9b98a8)"
           style="fill: none; stroke-dasharray: 5.55,2.4; stroke-dashoffset: 0; stroke: #ff0000; stroke-width: 1.5"
           id="path2493" />
        <defs
           id="defs2496">
          <path
             id="maf9dc36c21"
             d="M 0 3  C 0.795609 3 1.55874 2.683901 2.12132 2.12132  C 2.683901 1.55874 3 0.795609 3 0  C 3 -0.795609 2.683901 -1.55874 2.12132 -2.12132  C 1.55874 -2.683901 0.795609 -3 0 -3  C -0.795609 -3 -1.55874 -2.683901 -2.12132 -2.12132  C -2.683901 -1.55874 -3 -0.795609 -3 0  C -3 0.795609 -2.683901 1.55874 -2.12132 2.12132  C -1.55874 2.683901 -0.795609 3 0 3  z "
             style="stroke: #ff0000" />
        </defs>
        <g
           clip-path="url(#p504f9b98a8)"
           id="g2528">
          <use
             xlink:href="#maf9dc36c21"
             x="112.584545"
             y="322.88665"
             style="fill: #ff0000; stroke: #ff0000"
             id="use2498" />
          <use
             xlink:href="#maf9dc36c21"
             x="172.762468"
             y="574.057143"
             style="fill: #ff0000; stroke: #ff0000"
             id="use2500" />
          <use
             xlink:href="#maf9dc36c21"
             x="232.94039"
             y="610.776589"
             style="fill: #ff0000; stroke: #ff0000"
             id="use2502" />
          <use
             xlink:href="#maf9dc36c21"
             x="293.118312"
             y="620.776144"
             style="fill: #ff0000; stroke: #ff0000"
             id="use2504" />
          <use
             xlink:href="#maf9dc36c21"
             x="353.296234"
             y="644.757889"
             style="fill: #ff0000; stroke: #ff0000"
             id="use2506" />
          <use
             xlink:href="#maf9dc36c21"
             x="413.474156"
             y="640.793265"
             style="fill: #ff0000; stroke: #ff0000"
             id="use2508" />
          <use
             xlink:href="#maf9dc36c21"
             x="473.652078"
             y="654.456166"
             style="fill: #ff0000; stroke: #ff0000"
             id="use2510" />
          <use
             xlink:href="#maf9dc36c21"
             x="533.83"
             y="648.397853"
             style="fill: #ff0000; stroke: #ff0000"
             id="use2512" />
          <use
             xlink:href="#maf9dc36c21"
             x="594.007922"
             y="654.826325"
             style="fill: #ff0000; stroke: #ff0000"
             id="use2514" />
          <use
             xlink:href="#maf9dc36c21"
             x="654.185844"
             y="649.276719"
             style="fill: #ff0000; stroke: #ff0000"
             id="use2516" />
          <use
             xlink:href="#maf9dc36c21"
             x="714.363766"
             y="650.655662"
             style="fill: #ff0000; stroke: #ff0000"
             id="use2518" />
          <use
             xlink:href="#maf9dc36c21"
             x="774.541688"
             y="663.833214"
             style="fill: #ff0000; stroke: #ff0000"
             id="use2520" />
          <use
             xlink:href="#maf9dc36c21"
             x="834.71961"
             y="676.611176"
             style="fill: #ff0000; stroke: #ff0000"
             id="use2522" />
          <use
             xlink:href="#maf9dc36c21"
             x="894.897532"
             y="676.407621"
             style="fill: #ff0000; stroke: #ff0000"
             id="use2524" />
          <use
             xlink:href="#maf9dc36c21"
             x="955.075455"
             y="679.35912"
             style="fill: #ff0000; stroke: #ff0000"
             id="use2526" />
        </g>
      </g>
      <g
         id="patch_3">
        <path
           d="M 70.46 784.12  L 70.46 91.2  "
           style="fill: none; stroke: #000000; stroke-width: 0.8; stroke-linejoin: miter; stroke-linecap: square"
           id="path2531" />
      </g>
      <g
         id="patch_4">
        <path
           d="M 997.2 784.12  L 997.2 91.2  "
           style="fill: none; stroke: #000000; stroke-width: 0.8; stroke-linejoin: miter; stroke-linecap: square"
           id="path2534" />
      </g>
      <g
         id="patch_5">
        <path
           d="M 70.46 784.12  L 997.2 784.12  "
           style="fill: none; stroke: #000000; stroke-width: 0.8; stroke-linejoin: miter; stroke-linecap: square"
           id="path2537" />
      </g>
      <g
         id="patch_6">
        <path
           d="M 70.46 91.2  L 997.2 91.2  "
           style="fill: none; stroke: #000000; stroke-width: 0.8; stroke-linejoin: miter; stroke-linecap: square"
           id="path2540" />
      </g>
      <g
         id="legend_1">
        <g
           id="patch_7">
          <path
             d="M 746.155 210.74  L 974.8 210.74  Q 981.2 210.74 981.2 204.34  L 981.2 113.6  Q 981.2 107.2 974.8 107.2  L 746.155 107.2  Q 739.755 107.2 739.755 113.6  L 739.755 204.34  Q 739.755 210.74 746.155 210.74  z "
             style="fill: #ffffff; opacity: 0.8; stroke: #cccccc; stroke-linejoin: miter"
             id="path2641" />
        </g>
        <g
           id="line2d_18">
          <path
             d="M 752.555 133.115  L 784.555 133.115  L 816.555 133.115  "
             style="fill: none; stroke: #0000ff; stroke-width: 1.5; stroke-linecap: square"
             id="path2644" />
          <g
             id="g2648">
            <use
               xlink:href="#m513a4b4dc4"
               x="784.555"
               y="133.115"
               style="fill: #0000ff; stroke: #0000ff"
               id="use2646" />
          </g>
        </g>
        <g
           id="text_19">
          <!-- Training -->
          <g
             transform="translate(842.155 144.315)scale(0.32 -0.32)"
             id="g2671">
            <defs
               id="defs2653">
              <path
                 id="DejaVuSans-54"
                 d="M -19 4666  L 3928 4666  L 3928 4134  L 2272 4134  L 2272 0  L 1638 0  L 1638 4134  L -19 4134  L -19 4666  z "
                 transform="scale(0.015625)" />
              <path
                 id="DejaVuSans-69"
                 d="M 603 3500  L 1178 3500  L 1178 0  L 603 0  L 603 3500  z M 603 4863  L 1178 4863  L 1178 4134  L 603 4134  L 603 4863  z "
                 transform="scale(0.015625)" />
            </defs>
            <use
               xlink:href="#DejaVuSans-54"
               id="use2655" />
            <use
               xlink:href="#DejaVuSans-72"
               x="46.333984"
               id="use2657" />
            <path
               id="use2659"
               d="m 121.72852,27.484375 q -10.89063,0 -15.09375,-2.484375 -4.20313,-2.484375 -4.20313,-8.5 0,-4.78125 3.15625,-7.59375 3.15625,-2.796875 8.5625,-2.796875 7.48438,0 12,5.296875 4.51563,5.296875 4.51563,14.078125 v 2 z m 17.92187,3.71875 V 0 h -8.98437 v 8.296875 q -3.07813,-4.96875 -7.67188,-7.34375 -4.59375,-2.375 -11.23437,-2.375 -8.39063,0 -13.359379,4.71875 -4.953125,4.71875 -4.953125,12.625 0,9.21875 6.171875,13.90625 6.187499,4.6875 18.437499,4.6875 h 12.60938 v 0.890625 q 0,6.203125 -4.07813,9.59375 -4.07812,3.390625 -11.45312,3.390625 -4.6875,0 -9.14063,-1.125 -4.4375,-1.125 -8.531249,-3.375 v 8.3125 q 4.921879,1.90625 9.562499,2.84375 Q 111.66602,56 116.05664,56 q 11.875,0 17.73438,-6.15625 5.85937,-6.140625 5.85937,-18.640625 z"
               style="stroke-width:0.015625" />
            <use
               xlink:href="#DejaVuSans-69"
               x="148.726562"
               id="use2661" />
            <path
               id="use2663"
               d="M 231.40039,33.015625 V 0 h -8.98437 v 32.71875 q 0,7.765625 -3.03125,11.609375 -3.03125,3.859375 -9.07813,3.859375 -7.28125,0 -11.48437,-4.640625 -4.20313,-4.625 -4.20313,-12.640625 V 0 h -9.03125 v 54.6875 h 9.03125 v -8.5 q 3.23438,4.9375 7.59375,7.375 4.375,2.4375 10.09375,2.4375 9.42188,0 14.25,-5.828125 4.84375,-5.828125 4.84375,-17.15625 z"
               style="stroke-width:0.015625" />
            <use
               xlink:href="#DejaVuSans-69"
               x="239.888672"
               id="use2665" />
            <path
               id="use2667"
               d="M 322.5625,33.015625 V 0 h -8.98438 v 32.71875 q 0,7.765625 -3.03125,11.609375 -3.03125,3.859375 -9.07812,3.859375 -7.28125,0 -11.48438,-4.640625 -4.20312,-4.625 -4.20312,-12.640625 V 0 H 276.75 v 54.6875 h 9.03125 v -8.5 q 3.23437,4.9375 7.59375,7.375 Q 297.75,56 303.46875,56 q 9.42187,0 14.25,-5.828125 4.84375,-5.828125 4.84375,-17.15625 z"
               style="stroke-width:0.015625" />
            <path
               id="use2669"
               d="m 376.45703,27.984375 q 0,9.765625 -4.03125,15.125 -4.01562,5.375 -11.29687,5.375 -7.21875,0 -11.25,-5.375 -4.03125,-5.359375 -4.03125,-15.125 0,-9.71875 4.03125,-15.09375 4.03125,-5.375 11.25,-5.375 7.28125,0 11.29687,5.375 4.03125,5.375 4.03125,15.09375 z M 385.44141,6.78125 q 0,-13.953125 -6.20313,-20.765625 -6.1875,-6.8125 -18.98437,-6.8125 -4.73438,0 -8.9375,0.703125 -4.20313,0.703125 -8.15625,2.171875 V -9.1875 q 3.95312,-2.140625 7.8125,-3.15625 3.85937,-1.03125 7.85937,-1.03125 8.84375,0 13.23438,4.609375 4.39062,4.609375 4.39062,13.9375 V 9.625 Q 373.67578,4.78125 369.33203,2.390625 364.98828,0 358.92578,0 q -10.04687,0 -16.20312,7.65625 -6.15625,7.671875 -6.15625,20.328125 0,12.6875 6.15625,20.34375 Q 348.87891,56 358.92578,56 q 6.0625,0 10.40625,-2.390625 4.34375,-2.390625 7.125,-7.21875 V 54.6875 h 8.98438 z"
               style="stroke-width:0.015625" />
          </g>
        </g>
        <g
           id="line2d_19">
          <path
             d="M 752.555 180.085  L 784.555 180.085  L 816.555 180.085  "
             style="fill: none; stroke-dasharray: 5.55,2.4; stroke-dashoffset: 0; stroke: #ff0000; stroke-width: 1.5"
             id="path2674" />
          <g
             id="g2678">
            <use
               xlink:href="#maf9dc36c21"
               x="784.555"
               y="180.085"
               style="fill: #ff0000; stroke: #ff0000"
               id="use2676" />
          </g>
        </g>
        <g
           id="text_20">
          <!-- Testing -->
          <g
             transform="translate(842.155 191.285)scale(0.32 -0.32)"
             id="g2695">
            <use
               xlink:href="#DejaVuSans-54"
               id="use2681" />
            <path
               id="use2683"
               d="M 100.28711,29.59375 V 25.203125 H 58.974609 q 0.59375,-9.28125 5.59375,-14.140625 5,-4.859375 13.9375,-4.859375 5.171875,0 10.03125,1.265625 4.859375,1.265625 9.65625,3.8125 v -8.5 q -4.84375,-2.046875 -9.921875,-3.125 -5.078125,-1.078125 -10.296875,-1.078125 -13.09375,0 -20.734375,7.609375 -7.640625,7.625 -7.640625,20.625 0,13.421875 7.25,21.296875 Q 64.099609,56 76.412109,56 q 11.03125,0 17.453125,-7.109375 6.421876,-7.09375 6.421876,-19.296875 z m -8.984376,2.640625 q -0.09375,7.359375 -4.125,11.75 -4.03125,4.40625 -10.671875,4.40625 -7.515625,0 -12.03125,-4.25 -4.515625,-4.25 -5.203125,-11.96875 z"
               style="stroke-width:0.015625" />
            <use
               xlink:href="#DejaVuSans-73"
               x="105.607422"
               id="use2685" />
            <path
               id="use2687"
               d="M 176.01953,70.21875 V 54.6875 h 18.5 v -6.984375 h -18.5 v -29.6875 q 0,-6.6875 1.82813,-8.59375 1.82812,-1.90625 7.45312,-1.90625 h 9.21875 V 0 h -9.21875 q -10.40625,0 -14.35937,3.875 -3.95313,3.890625 -3.95313,14.140625 v 29.6875 h -6.59375 V 54.6875 h 6.59375 v 15.53125 z"
               style="stroke-width:0.015625" />
            <use
               xlink:href="#DejaVuSans-69"
               x="196.916016"
               id="use2689" />
            <path
               id="use2691"
               d="M 279.58984,33.015625 V 0 h -8.98437 v 32.71875 q 0,7.765625 -3.03125,11.609375 -3.03125,3.859375 -9.07813,3.859375 -7.28125,0 -11.48437,-4.640625 -4.20313,-4.625 -4.20313,-12.640625 V 0 h -9.03125 v 54.6875 h 9.03125 v -8.5 q 3.23438,4.9375 7.59375,7.375 4.375,2.4375 10.09375,2.4375 9.42188,0 14.25,-5.828125 4.84375,-5.828125 4.84375,-17.15625 z"
               style="stroke-width:0.015625" />
            <path
               id="use2693"
               d="m 333.48437,27.984375 q 0,9.765625 -4.03125,15.125 -4.01562,5.375 -11.29687,5.375 -7.21875,0 -11.25,-5.375 -4.03125,-5.359375 -4.03125,-15.125 0,-9.71875 4.03125,-15.09375 4.03125,-5.375 11.25,-5.375 7.28125,0 11.29687,5.375 4.03125,5.375 4.03125,15.09375 z M 342.46875,6.78125 q 0,-13.953125 -6.20313,-20.765625 -6.1875,-6.8125 -18.98437,-6.8125 -4.73438,0 -8.9375,0.703125 -4.20313,0.703125 -8.15625,2.171875 V -9.1875 q 3.95312,-2.140625 7.8125,-3.15625 3.85937,-1.03125 7.85937,-1.03125 8.84375,0 13.23438,4.609375 4.39062,4.609375 4.39062,13.9375 V 9.625 Q 330.70312,4.78125 326.35937,2.390625 322.01562,0 315.95312,0 305.90625,0 299.75,7.65625 q -6.15625,7.671875 -6.15625,20.328125 0,12.6875 6.15625,20.34375 Q 305.90625,56 315.95312,56 q 6.0625,0 10.40625,-2.390625 4.34375,-2.390625 7.125,-7.21875 V 54.6875 h 8.98438 z"
               style="stroke-width:0.015625" />
          </g>
        </g>
      </g>
    </g>
  </g>
  <defs
     id="defs2782">
    <clipPath
       id="p504f9b98a8">
      <rect
         x="70.46"
         y="91.2"
         width="926.74"
         height="692.92"
         id="rect2779" />
    </clipPath>
  </defs>
</svg>
