<?xml version="1.0" encoding="UTF-8" standalone="no"?>
<svg
   xmlns:dc="http://purl.org/dc/elements/1.1/"
   xmlns:cc="http://creativecommons.org/ns#"
   xmlns:rdf="http://www.w3.org/1999/02/22-rdf-syntax-ns#"
   xmlns:svg="http://www.w3.org/2000/svg"
   xmlns="http://www.w3.org/2000/svg"
   xmlns:xlink="http://www.w3.org/1999/xlink"
   xmlns:sodipodi="http://sodipodi.sourceforge.net/DTD/sodipodi-0.dtd"
   xmlns:inkscape="http://www.inkscape.org/namespaces/inkscape"
   width="1008pt"
   height="864pt"
   viewBox="0 0 1008 864"
   version="1.1"
   id="svg7286"
   sodipodi:docname="M6-variance.svg"
   inkscape:version="1.0.2 (e86c870879, 2021-01-15)">
  <sodipodi:namedview
     pagecolor="#ffffff"
     bordercolor="#666666"
     borderopacity="1"
     objecttolerance="10"
     gridtolerance="10"
     guidetolerance="10"
     inkscape:pageopacity="0"
     inkscape:pageshadow="2"
     inkscape:window-width="1549"
     inkscape:window-height="1020"
     id="namedview7288"
     showgrid="false"
     inkscape:zoom="0.77170139"
     inkscape:cx="690.15906"
     inkscape:cy="419.8638"
     inkscape:window-x="4"
     inkscape:window-y="1106"
     inkscape:window-maximized="0"
     inkscape:current-layer="axes_1" />
  <metadata
     id="metadata6686">
    <rdf:RDF>
      <cc:Work>
        <dc:type
           rdf:resource="http://purl.org/dc/dcmitype/StillImage" />
        <dc:date>2023-06-21T19:48:45.223997</dc:date>
        <dc:format>image/svg+xml</dc:format>
        <dc:creator>
          <cc:Agent>
            <dc:title>Matplotlib v3.6.2, https://matplotlib.org/</dc:title>
          </cc:Agent>
        </dc:creator>
      </cc:Work>
    </rdf:RDF>
  </metadata>
  <defs
     id="defs6690">
    <style
       type="text/css"
       id="style6688">*{stroke-linejoin: round; stroke-linecap: butt}</style>
  </defs>
  <g
     id="figure_1">
    <g
       id="patch_1">
      <path
         d="M 0 864  L 1008 864  L 1008 0  L 0 0  z "
         style="fill: #ffffff"
         id="path6692" />
    </g>
    <g
       id="axes_1">
      <g
         id="patch_2">
        <path
           d="M 77.286875 789.780625  L 970.5525 789.780625  L 970.5525 78.82575  L 77.286875 78.82575  z "
           style="fill: #ffffff"
           id="path6695" />
      </g>
      <g
         id="matplotlib.axis_1">
        <g
           id="xtick_1">
          <g
             id="line2d_1">
            <defs
               id="defs6699">
              <path
                 id="maf94d49627"
                 d="M 0 0  L 0 3.5  "
                 style="stroke: #000000; stroke-width: 0.8" />
            </defs>
            <g
               id="g6703">
              <use
                 xlink:href="#maf94d49627"
                 x="119.823333"
                 y="789.780625"
                 style="stroke: #000000; stroke-width: 0.8"
                 id="use6701" />
            </g>
          </g>
          <g
             id="text_1">
            <!-- 0.0 -->
            <g
               transform="translate(100.809583 816.5775) scale(0.28 -0.28)"
               id="g6716">
              <defs
                 id="defs6708">
                <path
                   id="Bender-30"
                   d="M 800 800  L 2752 3981  L 2662 4064  L 1216 4064  L 800 3654  L 800 800  z M 3066 3680  L 1114 499  L 1203 416  L 2650 416  L 3066 826  L 3066 3680  z M 2829 4480  L 3482 3827  L 3482 653  L 2822 0  L 1037 0  L 384 653  L 384 3827  L 1043 4480  L 2829 4480  z "
                   transform="scale(0.015625)" />
                <path
                   id="Bender-2e"
                   d="M 346 -64  L 192 90  L 192 358  L 346 512  L 614 512  L 768 358  L 768 90  L 614 -64  L 346 -64  z "
                   transform="scale(0.015625)" />
              </defs>
              <use
                 xlink:href="#Bender-30"
                 id="use6710" />
              <use
                 xlink:href="#Bender-2e"
                 x="60.399994"
                 id="use6712" />
              <use
                 xlink:href="#Bender-30"
                 x="75.399994"
                 id="use6714" />
            </g>
          </g>
        </g>
        <g
           id="xtick_2">
          <g
             id="line2d_2">
            <g
               id="g6722">
              <use
                 xlink:href="#maf94d49627"
                 x="226.164479"
                 y="789.780625"
                 style="stroke: #000000; stroke-width: 0.8"
                 id="use6720" />
            </g>
          </g>
          <g
             id="text_2">
            <!-- 2.5 -->
            <g
               transform="translate(208.594479 816.5775) scale(0.28 -0.28)"
               id="g6735">
              <defs
                 id="defs6727">
                <path
                   id="Bender-32"
                   d="M 819 4064  L 256 3885  L 128 4275  L 787 4480  L 2586 4480  L 3238 3821  L 3238 2662  L 2643 2067  L 550 698  L 550 416  L 3238 416  L 3238 0  L 134 0  L 134 922  L 2355 2374  L 2822 2848  L 2822 3654  L 2419 4064  L 819 4064  z "
                   transform="scale(0.015625)" />
                <path
                   id="Bender-35"
                   d="M 378 4480  L 3322 4480  L 3322 4064  L 794 4064  L 794 2675  L 2669 2675  L 3322 2022  L 3322 653  L 2662 0  L 966 0  L 320 218  L 454 608  L 1011 416  L 2483 416  L 2906 832  L 2906 1843  L 2490 2259  L 378 2259  L 378 4480  z "
                   transform="scale(0.015625)" />
              </defs>
              <use
                 xlink:href="#Bender-32"
                 id="use6729" />
              <use
                 xlink:href="#Bender-2e"
                 x="54.599991"
                 id="use6731" />
              <use
                 xlink:href="#Bender-35"
                 x="69.599991"
                 id="use6733" />
            </g>
          </g>
        </g>
        <g
           id="xtick_3">
          <g
             id="line2d_3">
            <g
               id="g6741">
              <use
                 xlink:href="#maf94d49627"
                 x="332.505625"
                 y="789.780625"
                 style="stroke: #000000; stroke-width: 0.8"
                 id="use6739" />
            </g>
          </g>
          <g
             id="text_3">
            <!-- 5.0 -->
            <g
               transform="translate(314.121875 816.5775) scale(0.28 -0.28)"
               id="g6750">
              <use
                 xlink:href="#Bender-35"
                 id="use6744" />
              <use
                 xlink:href="#Bender-2e"
                 x="55.899994"
                 id="use6746" />
              <use
                 xlink:href="#Bender-30"
                 x="70.899994"
                 id="use6748" />
            </g>
          </g>
        </g>
        <g
           id="xtick_4">
          <g
             id="line2d_4">
            <g
               id="g6756">
              <use
                 xlink:href="#maf94d49627"
                 x="438.846771"
                 y="789.780625"
                 style="stroke: #000000; stroke-width: 0.8"
                 id="use6754" />
            </g>
          </g>
          <g
             id="text_4">
            <!-- 7.5 -->
            <g
               transform="translate(421.849896 816.5775) scale(0.28 -0.28)"
               id="g6768">
              <defs
                 id="defs6760">
                <path
                   id="Bender-37"
                   d="M 1594 1120  L 1594 0  L 1178 0  L 1178 1222  L 2688 3789  L 2688 4064  L 64 4064  L 64 4480  L 3104 4480  L 3104 3680  L 1594 1120  z "
                   transform="scale(0.015625)" />
              </defs>
              <use
                 xlink:href="#Bender-37"
                 id="use6762" />
              <use
                 xlink:href="#Bender-2e"
                 x="50.499985"
                 id="use6764" />
              <use
                 xlink:href="#Bender-35"
                 x="65.499985"
                 id="use6766" />
            </g>
          </g>
        </g>
        <g
           id="xtick_5">
          <g
             id="line2d_5">
            <g
               id="g6774">
              <use
                 xlink:href="#maf94d49627"
                 x="545.187917"
                 y="789.780625"
                 style="stroke: #000000; stroke-width: 0.8"
                 id="use6772" />
            </g>
          </g>
          <g
             id="text_5">
            <!-- 10.0 -->
            <g
               transform="translate(521.134167 816.5775) scale(0.28 -0.28)"
               id="g6788">
              <defs
                 id="defs6778">
                <path
                   id="Bender-31"
                   d="M 2176 0  L 275 0  L 275 416  L 1018 416  L 1018 3898  L 422 3302  L 128 3597  L 1018 4486  L 1434 4486  L 1434 416  L 2176 416  L 2176 0  z "
                   transform="scale(0.015625)" />
              </defs>
              <use
                 xlink:href="#Bender-31"
                 id="use6780" />
              <use
                 xlink:href="#Bender-30"
                 x="35.999985"
                 id="use6782" />
              <use
                 xlink:href="#Bender-2e"
                 x="96.399979"
                 id="use6784" />
              <use
                 xlink:href="#Bender-30"
                 x="111.399979"
                 id="use6786" />
            </g>
          </g>
        </g>
        <g
           id="xtick_6">
          <g
             id="line2d_6">
            <g
               id="g6794">
              <use
                 xlink:href="#maf94d49627"
                 x="651.529063"
                 y="789.780625"
                 style="stroke: #000000; stroke-width: 0.8"
                 id="use6792" />
            </g>
          </g>
          <g
             id="text_6">
            <!-- 12.5 -->
            <g
               transform="translate(628.919063 816.5775) scale(0.28 -0.28)"
               id="g6805">
              <use
                 xlink:href="#Bender-31"
                 id="use6797" />
              <use
                 xlink:href="#Bender-32"
                 x="35.999985"
                 id="use6799" />
              <use
                 xlink:href="#Bender-2e"
                 x="90.599976"
                 id="use6801" />
              <use
                 xlink:href="#Bender-35"
                 x="105.599976"
                 id="use6803" />
            </g>
          </g>
        </g>
        <g
           id="xtick_7">
          <g
             id="line2d_7">
            <g
               id="g6811">
              <use
                 xlink:href="#maf94d49627"
                 x="757.870208"
                 y="789.780625"
                 style="stroke: #000000; stroke-width: 0.8"
                 id="use6809" />
            </g>
          </g>
          <g
             id="text_7">
            <!-- 15.0 -->
            <g
               transform="translate(734.446458 816.5775) scale(0.28 -0.28)"
               id="g6822">
              <use
                 xlink:href="#Bender-31"
                 id="use6814" />
              <use
                 xlink:href="#Bender-35"
                 x="35.999985"
                 id="use6816" />
              <use
                 xlink:href="#Bender-2e"
                 x="91.899979"
                 id="use6818" />
              <use
                 xlink:href="#Bender-30"
                 x="106.899979"
                 id="use6820" />
            </g>
          </g>
        </g>
        <g
           id="xtick_8">
          <g
             id="line2d_8">
            <g
               id="g6828">
              <use
                 xlink:href="#maf94d49627"
                 x="864.211354"
                 y="789.780625"
                 style="stroke: #000000; stroke-width: 0.8"
                 id="use6826" />
            </g>
          </g>
          <g
             id="text_8">
            <!-- 17.5 -->
            <g
               transform="translate(842.174479 816.5775) scale(0.28 -0.28)"
               id="g6839">
              <use
                 xlink:href="#Bender-31"
                 id="use6831" />
              <use
                 xlink:href="#Bender-37"
                 x="35.999985"
                 id="use6833" />
              <use
                 xlink:href="#Bender-2e"
                 x="86.499969"
                 id="use6835" />
              <use
                 xlink:href="#Bender-35"
                 x="101.499969"
                 id="use6837" />
            </g>
          </g>
        </g>
        <g
           id="xtick_9">
          <g
             id="line2d_9">
            <g
               id="g6845">
              <use
                 xlink:href="#maf94d49627"
                 x="970.5525"
                 y="789.780625"
                 style="stroke: #000000; stroke-width: 0.8"
                 id="use6843" />
            </g>
          </g>
          <g
             id="text_9">
            <!-- 20.0 -->
            <g
               transform="translate(943.895625 816.5775) scale(0.28 -0.28)"
               id="g6856">
              <use
                 xlink:href="#Bender-32"
                 id="use6848" />
              <use
                 xlink:href="#Bender-30"
                 x="54.599991"
                 id="use6850" />
              <use
                 xlink:href="#Bender-2e"
                 x="114.999985"
                 id="use6852" />
              <use
                 xlink:href="#Bender-30"
                 x="129.999985"
                 id="use6854" />
            </g>
          </g>
        </g>
        <g
           id="text_10">
          <!-- Epochs -->
          <g
             transform="translate(472.862188 847.905625) scale(0.32 -0.32)"
             id="g6880">
            <defs
               id="defs6866">
              <path
                 id="Bender-45"
                 d="M 512 0  L 512 4480  L 3283 4480  L 3283 4064  L 928 4064  L 928 2579  L 3014 2579  L 3014 2163  L 928 2163  L 928 416  L 3283 416  L 3283 0  L 512 0  z "
                 transform="scale(0.015625)" />
              <path
                 id="Bender-70"
                 d="M 915 800  L 1299 416  L 2509 416  L 2784 691  L 2784 2720  L 2509 2995  L 1344 2995  L 915 2566  L 915 800  z M 915 205  L 915 -1075  L 499 -1075  L 499 2643  L 320 3366  L 717 3462  L 819 3053  L 1178 3411  L 2682 3411  L 3200 2893  L 3200 518  L 2682 0  L 1120 0  L 915 205  z "
                 transform="scale(0.015625)" />
              <path
                 id="Bender-6f"
                 d="M 3117 531  L 2592 0  L 909 0  L 384 531  L 384 2880  L 909 3411  L 2592 3411  L 3117 2880  L 3117 531  z M 1082 416  L 2419 416  L 2701 704  L 2701 2707  L 2419 2995  L 1082 2995  L 800 2707  L 800 704  L 1082 416  z "
                 transform="scale(0.015625)" />
              <path
                 id="Bender-63"
                 d="M 2406 416  L 2970 595  L 3098 205  L 2445 0  L 909 0  L 384 531  L 384 2880  L 909 3411  L 2560 3411  L 3085 2880  L 3085 2176  L 2669 2176  L 2669 2726  L 2394 2995  L 1075 2995  L 800 2726  L 800 685  L 1075 416  L 2406 416  z "
                 transform="scale(0.015625)" />
              <path
                 id="Bender-68"
                 d="M 922 2611  L 922 0  L 506 0  L 506 3834  L 320 4397  L 710 4525  L 922 3878  L 922 3206  L 1126 3411  L 2675 3411  L 3200 2886  L 3200 0  L 2784 0  L 2784 2720  L 2509 2995  L 1306 2995  L 922 2611  z "
                 transform="scale(0.015625)" />
              <path
                 id="Bender-73"
                 d="M 2432 1088  L 2362 1229  L 403 1920  L 205 2304  L 205 2886  L 730 3411  L 2214 3411  L 2861 3194  L 2726 2803  L 2170 2995  L 909 2995  L 621 2707  L 621 2406  L 691 2259  L 2650 1568  L 2848 1190  L 2848 525  L 2323 0  L 838 0  L 192 205  L 320 602  L 890 416  L 2144 416  L 2432 704  L 2432 1088  z "
                 transform="scale(0.015625)" />
            </defs>
            <use
               xlink:href="#Bender-45"
               id="use6868" />
            <use
               xlink:href="#Bender-70"
               x="53.299988"
               id="use6870" />
            <use
               xlink:href="#Bender-6f"
               x="109.299973"
               id="use6872" />
            <use
               xlink:href="#Bender-63"
               x="163.999969"
               id="use6874" />
            <use
               xlink:href="#Bender-68"
               x="215.399963"
               id="use6876" />
            <use
               xlink:href="#Bender-73"
               x="271.399948"
               id="use6878" />
          </g>
        </g>
      </g>
      <g
         id="matplotlib.axis_2">
        <g
           id="ytick_1">
          <g
             id="line2d_10">
            <defs
               id="defs6885">
              <path
                 id="m56c9eaedc7"
                 d="M 0 0  L -3.5 0  "
                 style="stroke: #000000; stroke-width: 0.8" />
            </defs>
            <g
               id="g6889">
              <use
                 xlink:href="#m56c9eaedc7"
                 x="77.286875"
                 y="783.375626"
                 style="stroke: #000000; stroke-width: 0.8"
                 id="use6887" />
            </g>
          </g>
          <g
             id="text_11">
            <!-- 0 -->
            <g
               transform="translate(53.373125 793.274064) scale(0.28 -0.28)"
               id="g6894">
              <use
                 xlink:href="#Bender-30"
                 id="use6892" />
            </g>
          </g>
        </g>
        <g
           id="ytick_2">
          <g
             id="line2d_11">
            <g
               id="g6900">
              <use
                 xlink:href="#m56c9eaedc7"
                 x="77.286875"
                 y="655.275649"
                 style="stroke: #000000; stroke-width: 0.8"
                 id="use6898" />
            </g>
          </g>
          <g
             id="text_12">
            <!-- 2 -->
            <g
               transform="translate(55.000625 665.174086) scale(0.28 -0.28)"
               id="g6905">
              <use
                 xlink:href="#Bender-32"
                 id="use6903" />
            </g>
          </g>
        </g>
        <g
           id="ytick_3">
          <g
             id="line2d_12">
            <g
               id="g6911">
              <use
                 xlink:href="#m56c9eaedc7"
                 x="77.286875"
                 y="527.175671"
                 style="stroke: #000000; stroke-width: 0.8"
                 id="use6909" />
            </g>
          </g>
          <g
             id="text_13">
            <!-- 4 -->
            <g
               transform="translate(54.720625 537.074109) scale(0.28 -0.28)"
               id="g6919">
              <defs
                 id="defs6915">
                <path
                   id="Bender-34"
                   d="M 3027 1510  L 3494 1510  L 3494 1094  L 3027 1094  L 3027 0  L 2611 0  L 2611 1094  L 64 1094  L 64 1658  L 2611 4493  L 3027 4493  L 3027 1510  z M 2611 1510  L 2611 3853  L 506 1510  L 2611 1510  z "
                   transform="scale(0.015625)" />
              </defs>
              <use
                 xlink:href="#Bender-34"
                 id="use6917" />
            </g>
          </g>
        </g>
        <g
           id="ytick_4">
          <g
             id="line2d_13">
            <g
               id="g6925">
              <use
                 xlink:href="#m56c9eaedc7"
                 x="77.286875"
                 y="399.075694"
                 style="stroke: #000000; stroke-width: 0.8"
                 id="use6923" />
            </g>
          </g>
          <g
             id="text_14">
            <!-- 6 -->
            <g
               transform="translate(53.906875 408.974131) scale(0.28 -0.28)"
               id="g6933">
              <defs
                 id="defs6929">
                <path
                   id="Bender-36"
                   d="M 384 659  L 384 3821  L 1037 4480  L 2842 4480  L 3469 4269  L 3328 3878  L 2758 4064  L 1203 4064  L 800 3654  L 800 2650  L 1011 2720  L 2829 2720  L 3488 2048  L 3488 653  L 2829 0  L 1043 0  L 384 659  z M 2656 2304  L 1011 2304  L 800 2234  L 800 832  L 1216 416  L 2656 416  L 3072 832  L 3072 1875  L 2656 2304  z "
                   transform="scale(0.015625)" />
              </defs>
              <use
                 xlink:href="#Bender-36"
                 id="use6931" />
            </g>
          </g>
        </g>
        <g
           id="ytick_5">
          <g
             id="line2d_14">
            <g
               id="g6939">
              <use
                 xlink:href="#m56c9eaedc7"
                 x="77.286875"
                 y="270.975716"
                 style="stroke: #000000; stroke-width: 0.8"
                 id="use6937" />
            </g>
          </g>
          <g
             id="text_15">
            <!-- 8 -->
            <g
               transform="translate(53.40375 280.874154) scale(0.28 -0.28)"
               id="g6947">
              <defs
                 id="defs6943">
                <path
                   id="Bender-38"
                   d="M 3059 1715  L 2650 2125  L 1216 2125  L 800 1709  L 800 826  L 1216 416  L 2637 416  L 3059 832  L 3059 1715  z M 2624 4064  L 1235 4064  L 832 3661  L 832 2925  L 1222 2541  L 2637 2541  L 3027 2925  L 3027 3642  L 2624 4064  z M 2816 0  L 1043 0  L 384 653  L 384 1888  L 832 2336  L 416 2746  L 416 3827  L 1069 4480  L 2816 4480  L 3443 3827  L 3443 2746  L 3027 2336  L 3475 1888  L 3475 653  L 2816 0  z "
                   transform="scale(0.015625)" />
              </defs>
              <use
                 xlink:href="#Bender-38"
                 id="use6945" />
            </g>
          </g>
        </g>
        <g
           id="ytick_6">
          <g
             id="line2d_15">
            <g
               id="g6953">
              <use
                 xlink:href="#m56c9eaedc7"
                 x="77.286875"
                 y="142.875739"
                 style="stroke: #000000; stroke-width: 0.8"
                 id="use6951" />
            </g>
          </g>
          <g
             id="text_16">
            <!-- 10 -->
            <g
               transform="translate(43.293125 152.774176) scale(0.28 -0.28)"
               id="g6960">
              <use
                 xlink:href="#Bender-31"
                 id="use6956" />
              <use
                 xlink:href="#Bender-30"
                 x="35.999985"
                 id="use6958" />
            </g>
          </g>
        </g>
        <g
           id="text_17">
          <!-- Error (%) -->
          <g
             transform="translate(33.598125 497.633188) rotate(-90) scale(0.32 -0.32)"
             id="g6989">
            <defs
               id="defs6969">
              <path
                 id="Bender-72"
                 d="M 2144 2995  L 1344 2995  L 915 2566  L 915 0  L 499 0  L 499 2643  L 320 3366  L 717 3462  L 819 3053  L 1178 3411  L 2317 3411  L 2938 2803  L 2650 2502  L 2144 2995  z "
                 transform="scale(0.015625)" />
              <path
                 id="Bender-20"
                 transform="scale(0.015625)" />
              <path
                 id="Bender-28"
                 d="M 672 3482  L 672 -51  L 973 -525  L 1600 -755  L 1459 -1139  L 710 -870  L 256 -141  L 256 3571  L 710 4301  L 1459 4570  L 1600 4186  L 973 3955  L 672 3482  z "
                 transform="scale(0.015625)" />
              <path
                 id="Bender-25"
                 d="M 390 179  L 3776 4563  L 4090 4320  L 710 -70  L 390 179  z M 2963 1856  L 3770 1856  L 4294 1331  L 4294 525  L 3770 0  L 2963 0  L 2438 525  L 2438 1331  L 2963 1856  z M 3597 1440  L 3136 1440  L 2854 1158  L 2854 698  L 3136 416  L 3597 416  L 3878 698  L 3878 1158  L 3597 1440  z M 717 4480  L 1523 4480  L 2048 3955  L 2048 3149  L 1523 2624  L 717 2624  L 192 3149  L 192 3955  L 717 4480  z M 1350 4064  L 890 4064  L 608 3782  L 608 3322  L 890 3040  L 1350 3040  L 1632 3322  L 1632 3782  L 1350 4064  z "
                 transform="scale(0.015625)" />
              <path
                 id="Bender-29"
                 d="M 928 -51  L 928 3482  L 627 3955  L 0 4186  L 141 4570  L 890 4301  L 1344 3571  L 1344 -141  L 890 -870  L 141 -1139  L 0 -755  L 627 -525  L 928 -51  z "
                 transform="scale(0.015625)" />
            </defs>
            <use
               xlink:href="#Bender-45"
               id="use6971" />
            <use
               xlink:href="#Bender-72"
               x="53.299988"
               id="use6973" />
            <use
               xlink:href="#Bender-72"
               x="99.199982"
               id="use6975" />
            <use
               xlink:href="#Bender-6f"
               x="145.099976"
               id="use6977" />
            <use
               xlink:href="#Bender-72"
               x="199.799973"
               id="use6979" />
            <use
               xlink:href="#Bender-20"
               x="245.699966"
               id="use6981" />
            <use
               xlink:href="#Bender-28"
               x="275.699951"
               id="use6983" />
            <use
               xlink:href="#Bender-25"
               x="300.699936"
               id="use6985" />
            <use
               xlink:href="#Bender-29"
               x="370.799927"
               id="use6987" />
          </g>
        </g>
      </g>
      <g
         id="line2d_16">
        <path
           d="M 126.288131 -1  L 162.359792 537.051339  L 204.89625 664.335762  L 247.432708 622.055146  L 289.969167 714.062035  L 332.505625 718.022785  L 375.042083 732.075606  L 417.578542 714.279368  L 460.115 733.61948  L 502.651458 713.092733  L 545.187917 711.669336  L 587.724375 733.362288  L 630.260833 751.817072  L 672.797292 751.442701  L 715.33375 752.036755  "
           clip-path="url(#pb6cca45129)"
           style="fill: none; stroke-dasharray: 5.55,2.4; stroke-dashoffset: 0; stroke: #ff0000; stroke-width: 1.5"
           id="path6993" />
      </g>
      <g
         id="line2d_17">
        <path
           d="M 119.823333 700.309361  L 162.359792 721.27683  L 204.89625 729.589839  L 247.432708 729.239967  L 289.969167 741.172366  L 332.505625 745.040412  L 375.042083 752.084945  L 417.578542 751.276408  L 460.115 752.316162  L 502.651458 753.770121  L 545.187917 754.275587  L 587.724375 753.060597  L 630.260833 752.180288  L 672.797292 752.561113  L 715.33375 752.036755  "
           clip-path="url(#pb6cca45129)"
           style="fill: none; stroke-dasharray: 5.55,2.4; stroke-dashoffset: 0; stroke: #ff0000; stroke-width: 1.5"
           id="path6996" />
      </g>
      <g
         id="line2d_18">
        <path
           d="M 119.823333 549.207388  L 162.359792 682.644994  L 204.89625 708.023725  L 247.432708 710.199142  L 289.969167 728.642762  L 332.505625 735.323504  L 375.042083 744.262038  L 417.578542 740.798011  L 460.115 744.820324  L 502.651458 744.034571  L 545.187917 742.149018  L 587.724375 747.213752  L 630.260833 751.99868  L 672.797292 752.001907  L 715.33375 752.036755  "
           clip-path="url(#pb6cca45129)"
           style="fill: none; stroke: #0000ff; stroke-width: 1.5; stroke-linecap: square"
           id="path6999" />
      </g>
      <g
         id="patch_3">
        <path
           d="M 77.286875 789.780625  L 77.286875 78.82575  "
           style="fill: none; stroke: #000000; stroke-width: 0.8; stroke-linejoin: miter; stroke-linecap: square"
           id="path7002" />
      </g>
      <g
         id="patch_4">
        <path
           d="M 970.5525 789.780625  L 970.5525 78.82575  "
           style="fill: none; stroke: #000000; stroke-width: 0.8; stroke-linejoin: miter; stroke-linecap: square"
           id="path7005" />
      </g>
      <g
         id="patch_5">
        <path
           d="M 77.286875 789.780625  L 970.5525 789.780625  "
           style="fill: none; stroke: #000000; stroke-width: 0.8; stroke-linejoin: miter; stroke-linecap: square"
           id="path7008" />
      </g>
      <g
         id="patch_6">
        <path
           d="M 77.286875 78.82575  L 970.5525 78.82575  "
           style="fill: none; stroke: #000000; stroke-width: 0.8; stroke-linejoin: miter; stroke-linecap: square"
           id="path7011" />
      </g>
      <g
         id="legend_1">
        <g
           id="patch_7">
          <path
             d="M 604.2175 236.42575  L 948.1525 236.42575  Q 954.5525 236.42575 954.5525 230.02575  L 954.5525 101.22575  Q 954.5525 94.82575 948.1525 94.82575  L 604.2175 94.82575  Q 597.8175 94.82575 597.8175 101.22575  L 597.8175 230.02575  Q 597.8175 236.42575 604.2175 236.42575  z "
             style="fill: #ffffff; opacity: 0.8; stroke: #cccccc; stroke-linejoin: miter"
             id="path7190" />
        </g>
        <g
           id="line2d_19">
          <path
             d="M 610.6175 119.05075  L 642.6175 119.05075  L 674.6175 119.05075  "
             style="fill: none; stroke-dasharray: 5.55,2.4; stroke-dashoffset: 0; stroke: #ff0000; stroke-width: 1.5"
             id="path7193" />
        </g>
        <g
           id="text_19">
          <!-- Max line -->
          <g
             transform="translate(700.2175 130.25075) scale(0.32 -0.32)"
             id="g7215">
            <defs
               id="defs7197">
              <path
                 id="Bender-78"
                 d="M 1446 2067  L 2490 3475  L 2829 3226  L 1702 1702  L 2822 186  L 2483 -64  L 1446 1338  L 410 -64  L 70 186  L 1190 1702  L 64 3226  L 403 3475  L 1446 2067  z "
                 transform="scale(0.015625)" />
            </defs>
            <path
               id="use7199"
               d="M 44.40625,16.59375 H 38.796875 L 14.5,58.09375 V 0 H 8 v 70 h 7.203125 L 41.59375,24.90625 68,70 h 7.203125 V 0 h -6.5 v 58.09375 z"
               style="stroke-width:0.015625" />
            <path
               id="use7201"
               d="M 130.49686,45.09375 V 12 l 2.79687,-11.296875 -6.1875,-1.5 L 125.49686,5.59375 119.90311,0 H 96.496857 l -8.296875,8.203125 v 14.5 l 8.296875,8.203125 h 27.500003 v 11.5 l -4.5,4.390625 h -19.20313 l -8.687498,-3 -2.109375,6.109375 10.109375,3.390625 H 122.19998 Z M 117.29373,6.5 l 6.70313,6.703125 V 24.40625 H 99.199982 L 94.699982,20 v -9.09375 l 4.5,-4.40625 z"
               style="stroke-width:0.015625" />
            <use
               xlink:href="#Bender-78"
               x="138.299973"
               id="use7203" />
            <use
               xlink:href="#Bender-20"
               x="183.499969"
               id="use7205" />
            <path
               id="use7207"
               d="M 227.9062,60.59375 V 0 h -6.5 v 59.90625 l -2.90625,8.796875 6.09375,2 z"
               style="stroke-width:0.015625" />
            <path
               id="use7209"
               d="m 241.8062,43.296875 -2.90625,8.796875 6.09375,2 L 248.3062,44 V 0 h -6.5 z M 242.89995,60.5 240.4937,62.90625 v 4.1875 L 242.89995,69.5 h 4.20312 l 2.39063,-2.40625 v -4.1875 L 247.10307,60.5 Z"
               style="stroke-width:0.015625" />
            <path
               id="use7211"
               d="m 263.29681,0 v 41.296875 l -2.79687,11.296875 6.20312,1.5 1.59375,-6.390625 5.60938,5.59375 h 23.5 l 8.1875,-8.203125 V 0 h -6.5 v 42.296875 l -4.5,4.5 H 276.49994 L 269.79681,40.09375 V 0 Z"
               style="stroke-width:0.015625" />
            <path
               id="use7213"
               d="m 349.1937,6.5 8.8125,2.796875 2,-6.09375 L 349.80307,0 h -24 l -8.20312,8.203125 V 45.09375 l 8.20312,8.203125 h 25.79688 l 8.20312,-8.203125 v -14.6875 l -8.20312,-8.109375 h -27.5 V 10.90625 L 328.5062,6.5 Z M 328.5062,46.796875 324.09995,42.40625 V 28.796875 h 24.79687 l 4.40625,4.40625 v 9.203125 l -4.40625,4.390625 z"
               style="stroke-width:0.015625" />
          </g>
        </g>
        <g
           id="line2d_20">
          <path
             d="M 610.6175 163.05075  L 642.6175 163.05075  L 674.6175 163.05075  "
             style="fill: none; stroke-dasharray: 5.55,2.4; stroke-dashoffset: 0; stroke: #ff0000; stroke-width: 1.5"
             id="path7218" />
        </g>
        <g
           id="text_20">
          <!-- Min line -->
          <g
             transform="translate(700.2175 174.25075) scale(0.32 -0.32)"
             id="g7237">
            <path
               id="use7221"
               d="M 44.40625,16.59375 H 38.796875 L 14.5,58.09375 V 0 H 8 v 70 h 7.203125 L 41.59375,24.90625 68,70 h 7.203125 V 0 h -6.5 v 58.09375 z"
               style="stroke-width:0.015625" />
            <path
               id="use7223"
               d="m 91.106232,43.296875 -2.90625,8.796875 6.09375,2 L 97.606232,44 V 0 h -6.5 z M 92.199982,60.5 l -2.40625,2.40625 v 4.1875 L 92.199982,69.5 h 4.203125 l 2.390625,-2.40625 v -4.1875 L 96.403107,60.5 Z"
               style="stroke-width:0.015625" />
            <path
               id="use7225"
               d="m 112.59685,0 v 41.296875 l -2.79688,11.296875 6.20313,1.5 1.59375,-6.390625 5.60937,5.59375 h 23.5 l 8.1875,-8.203125 V 0 h -6.5 v 42.296875 l -4.5,4.5 H 125.79997 L 119.09685,40.09375 V 0 Z"
               style="stroke-width:0.015625" />
            <use
               xlink:href="#Bender-20"
               x="160.899963"
               id="use7227" />
            <path
               id="use7229"
               d="M 205.3062,60.59375 V 0 h -6.5 v 59.90625 l -2.90625,8.796875 6.09375,2 z"
               style="stroke-width:0.015625" />
            <path
               id="use7231"
               d="m 219.20619,43.296875 -2.90625,8.796875 6.09375,2 L 225.70619,44 V 0 h -6.5 z M 220.29994,60.5 l -2.40625,2.40625 v 4.1875 L 220.29994,69.5 h 4.20313 l 2.39062,-2.40625 v -4.1875 L 224.50307,60.5 Z"
               style="stroke-width:0.015625" />
            <path
               id="use7233"
               d="m 240.69681,0 v 41.296875 l -2.79688,11.296875 6.20313,1.5 1.59375,-6.390625 5.60937,5.59375 h 23.5 l 8.1875,-8.203125 V 0 h -6.5 v 42.296875 l -4.5,4.5 H 253.89993 L 247.19681,40.09375 V 0 Z"
               style="stroke-width:0.015625" />
            <path
               id="use7235"
               d="m 326.59369,6.5 8.8125,2.796875 2,-6.09375 L 327.20306,0 h -24 l -8.20312,8.203125 V 45.09375 l 8.20312,8.203125 h 25.79688 l 8.20312,-8.203125 v -14.6875 l -8.20312,-8.109375 h -27.5 V 10.90625 L 305.90619,6.5 Z m -20.6875,40.296875 -4.40625,-4.390625 V 28.796875 h 24.79687 l 4.40625,4.40625 v 9.203125 l -4.40625,4.390625 z"
               style="stroke-width:0.015625" />
          </g>
        </g>
        <g
           id="line2d_21">
          <path
             d="M 610.6175 207.05075  L 642.6175 207.05075  L 674.6175 207.05075  "
             style="fill: none; stroke: #0000ff; stroke-width: 1.5; stroke-linecap: square"
             id="path7240" />
        </g>
        <g
           id="text_21">
          <!-- Average learning -->
          <g
             transform="translate(700.2175 218.25075) scale(0.32 -0.32)"
             id="g7275">
            <path
               id="use7243"
               d="M 15.5,21.203125 8.296875,-1 2,1 24.296875,70 H 33.5 L 55.796875,1 49.5,-1 42.296875,21.203125 Z m 2.09375,6.5 h 22.609375 l -11.296875,35 z"
               style="stroke-width:0.015625" />
            <path
               id="use7245"
               d="m 86.096863,0 h -6.59375 l -20.703125,51.90625 6,2.390625 18,-45.296875 18.000002,45.296875 6,-2.390625 z"
               style="stroke-width:0.015625" />
            <path
               id="use7247"
               d="m 145.39372,6.5 8.8125,2.796875 2,-6.09375 L 146.0031,0 h -24 l -8.20313,8.203125 V 45.09375 l 8.20313,8.203125 h 25.79687 l 8.20313,-8.203125 v -14.6875 l -8.20313,-8.109375 h -27.5 V 10.90625 L 124.70622,6.5 Z m -20.6875,40.296875 -4.40625,-4.390625 V 28.796875 h 24.79688 l 4.40625,4.40625 v 9.203125 l -4.40625,4.390625 z"
               style="stroke-width:0.015625" />
            <use
               xlink:href="#Bender-72"
               x="160.199966"
               id="use7249" />
            <path
               id="use7251"
               d="M 253.39684,45.09375 V 12 l 2.79687,-11.296875 -6.1875,-1.5 L 248.39684,5.59375 242.80309,0 h -23.40625 l -8.29688,8.203125 v 14.5 l 8.29688,8.203125 h 27.5 v 11.5 l -4.5,4.390625 h -19.20313 l -8.6875,-3 -2.10937,6.109375 10.10937,3.390625 h 22.59375 z M 240.19371,6.5 l 6.70313,6.703125 V 24.40625 H 222.09996 L 217.59996,20 v -9.09375 l 4.5,-4.40625 z"
               style="stroke-width:0.015625" />
            <path
               id="use7253"
               d="m 276.69995,12.5 -2,1.90625 -1.59375,-1.609375 v -4.59375 l 2.29688,-2.296875 h 27.79687 l 6,-6 v -10.703125 l -6,-6 h -29.5 l -7.5,7.296875 4.40625,4.59375 5.59375,-5.390625 h 24.20313 L 302.69995,-8 v 5.09375 l -2.29687,2.3125 h -27.90625 l -6,6 v 10.1875 l 3.5,3.5 -3.5,3.5 v 22.5 l 8.20312,8.203125 h 22.5 l 11.29688,2.796875 1.5,-6.1875 -6.29688,-1.609375 5.5,-5.5 V 20.703125 L 300.99683,12.5 Z m 19.29688,34.296875 H 277.40308 L 272.99683,42.40625 V 25.296875 L 279.2937,19 h 19 l 4.40625,4.40625 v 16.6875 z"
               style="stroke-width:0.015625" />
            <path
               id="use7255"
               d="m 350.59369,6.5 8.8125,2.796875 2,-6.09375 L 351.20306,0 h -24 l -8.20312,8.203125 V 45.09375 l 8.20312,8.203125 h 25.79688 l 8.20312,-8.203125 v -14.6875 l -8.20312,-8.109375 h -27.5 V 10.90625 L 329.90619,6.5 Z m -20.6875,40.296875 -4.40625,-4.390625 V 28.796875 h 24.79687 l 4.40625,4.40625 v 9.203125 l -4.40625,4.390625 z"
               style="stroke-width:0.015625" />
            <use
               xlink:href="#Bender-20"
               x="365.399933"
               id="use7257" />
            <path
               id="use7259"
               d="M 409.80618,60.59375 V 0 h -6.5 v 59.90625 l -2.90625,8.796875 6.09375,2 z"
               style="stroke-width:0.015625" />
            <path
               id="use7261"
               d="m 453.39365,6.5 8.8125,2.796875 2,-6.09375 L 454.00302,0 h -24 L 421.7999,8.203125 V 45.09375 l 8.20312,8.203125 h 25.79688 l 8.20312,-8.203125 v -14.6875 l -8.20312,-8.109375 h -27.5 V 10.90625 L 432.70615,6.5 Z M 432.70615,46.796875 428.2999,42.40625 V 28.796875 h 24.79687 l 4.40625,4.40625 v 9.203125 l -4.40625,4.390625 z"
               style="stroke-width:0.015625" />
            <path
               id="use7263"
               d="M 515.49677,45.09375 V 12 l 2.79687,-11.296875 -6.1875,-1.5 L 510.49677,5.59375 504.90302,0 h -23.40625 l -8.29688,8.203125 v 14.5 l 8.29688,8.203125 h 27.5 v 11.5 l -4.5,4.390625 h -19.20313 l -8.6875,-3 -2.10937,6.109375 10.10937,3.390625 h 22.59375 z M 502.29364,6.5 l 6.70313,6.703125 V 24.40625 H 484.19989 L 479.69989,20 v -9.09375 l 4.5,-4.40625 z"
               style="stroke-width:0.015625" />
            <use
               xlink:href="#Bender-72"
               x="523.299896"
               id="use7265" />
            <path
               id="use7267"
               d="m 576.99677,0 v 41.296875 l -2.79688,11.296875 6.20313,1.5 1.59375,-6.390625 5.60937,5.59375 h 23.5 l 8.1875,-8.203125 V 0 h -6.5 v 42.296875 l -4.5,4.5 H 590.19989 L 583.49677,40.09375 V 0 Z"
               style="stroke-width:0.015625" />
            <path
               id="use7269"
               d="m 633.20612,43.296875 -2.90625,8.796875 6.09375,2 L 639.70612,44 V 0 h -6.5 z M 634.29987,60.5 l -2.40625,2.40625 v 4.1875 L 634.29987,69.5 h 4.20312 l 2.39063,-2.40625 v -4.1875 L 638.50299,60.5 Z"
               style="stroke-width:0.015625" />
            <path
               id="use7271"
               d="m 654.69678,0 v 41.296875 l -2.79688,11.296875 6.20313,1.5 1.59375,-6.390625 5.60937,5.59375 h 23.5 l 8.1875,-8.203125 V 0 h -6.5 v 42.296875 l -4.5,4.5 H 667.8999 L 661.19678,40.09375 V 0 Z"
               style="stroke-width:0.015625" />
            <path
               id="use7273"
               d="m 718.49988,12.5 -2,1.90625 -1.59375,-1.609375 V 8.203125 L 717.203,5.90625 h 27.79688 l 6,-6 v -10.703125 l -6,-6 h -29.5 l -7.5,7.296875 4.40625,4.59375 5.59375,-5.390625 H 742.203 L 744.49988,-8 v 5.09375 l -2.29688,2.3125 h -27.90625 l -6,6 v 10.1875 l 3.5,3.5 -3.5,3.5 v 22.5 l 8.20313,8.203125 h 22.5 l 11.29687,2.796875 1.5,-6.1875 -6.29687,-1.609375 5.5,-5.5 V 20.703125 L 742.79675,12.5 Z m 19.29687,34.296875 H 719.203 L 714.79675,42.40625 V 25.296875 L 721.09363,19 h 19 l 4.40625,4.40625 v 16.6875 z"
               style="stroke-width:0.015625" />
          </g>
        </g>
      </g>
    </g>
  </g>
  <defs
     id="defs7284">
    <clipPath
       id="pb6cca45129">
      <rect
         x="77.286875"
         y="78.82575"
         width="893.265625"
         height="710.954875"
         id="rect7281" />
    </clipPath>
  </defs>
</svg>
